<svg width="688" height="472" viewBox="0 0 688 472" fill="none" xmlns="http://www.w3.org/2000/svg">
<g clip-path="url(#clip0_89_893)">
<g style="mix-blend-mode:multiply" opacity="0.5">
<path d="M682.043 59.2708L675.303 58.4909L667.483 35.7382L662.143 34.8841L657.136 32.3464H655.949L655.64 32.8663H655.439L655.13 33.3986H654.928L654.632 33.9309H654.43L654.122 34.4508H653.837L653.588 34.8841H650.929L648.96 33.2005L647.773 34.1413V34.3146L647.31 34.6736V34.8469L646.847 35.1936V35.3792L646.385 35.7259V35.8992L645.922 36.2582V36.4315L645.459 36.7781V36.9638L644.996 37.3104V37.4837L644.533 37.8427V38.016L644.071 38.3626V38.5359L643.608 38.8949V39.0682L643.145 39.4272V39.6005L642.682 39.9471V40.1204L642.22 40.4794V40.6527L641.769 41.0117V41.185L641.306 41.5316V41.7049L640.843 42.0639V42.2372L640.38 42.5962V42.7695L639.918 43.1161V43.2895L639.455 43.6484V43.8217L638.992 44.1807V44.354L638.529 44.7007V44.874L638.066 45.233V45.4063L637.604 45.7653V45.9386L637.141 46.2852V46.4585L636.678 46.8175V46.9908L636.215 47.3498V47.5231L635.752 47.8697V48.043L635.29 48.402V48.5753L634.827 48.9219V49.1076L634.364 49.4542V49.6275L633.901 49.9865V50.1598L633.438 50.5064V50.6921L632.976 51.0387V51.212L632.513 51.571V51.7443L632.05 52.0909V52.2642L631.587 52.6232V52.7965L631.136 53.1555V53.3288L630.674 53.6755V53.8488L630.211 54.2078V54.3811L629.76 54.7401V54.9134L629.297 55.26V55.4333L628.834 55.7923L623.993 75.0912L626.615 79.6343L626.675 81.8006L615.829 84.7963L598.623 89.5375L598.373 89.9955L598.124 90.0698L597.863 90.5278L597.614 90.5897L597.365 91.0477L597.104 91.122L596.854 91.58L596.605 91.6543L596.344 92.1123H596.095L595.846 92.5704L595.585 92.6446L595.336 93.1027L595.086 93.1769L594.825 93.635H594.576L594.327 94.093L594.066 94.1673L593.817 94.6253L593.567 94.6996L593.306 95.1576H593.057L592.808 95.6156L592.547 95.6899L592.298 96.1479L592.049 96.2222L591.788 96.6802H591.538L591.289 97.1382L591.028 97.2125L590.779 97.6705L590.53 97.7448L590.269 98.2028H590.019L589.77 98.6608L589.521 98.7351L589.26 99.1931L589.011 99.255L588.75 99.7131L588.501 99.7873L588.251 100.245L588.002 100.32L587.741 100.778H587.492L587.231 101.236L586.982 101.31L586.732 101.768L586.483 101.842L586.222 102.3H585.973L585.724 102.758L585.463 102.833L585.214 103.291L584.964 103.365L584.703 103.823H584.454L584.205 104.281L583.944 104.355L583.695 104.813L583.445 104.887L583.184 105.346H582.935L582.686 105.804L582.425 105.878L582.176 106.336L581.927 106.41L581.666 106.868H581.416L581.167 107.326L580.906 107.4L580.657 107.858L580.408 107.933L580.147 108.391H579.897L579.648 108.849L579.387 108.923L579.138 109.381L578.889 109.455L578.628 109.913H578.379L578.129 110.371L577.868 110.446L569.586 122.924L559.523 126.501V126.836L559.001 127.021V127.368L558.479 127.553V127.9L557.945 128.086V128.42L557.423 128.606V128.952L556.9 129.138V129.485L556.366 129.67V130.005L555.844 130.19V130.537L555.322 130.723V131.057L554.8 131.242V131.589L554.278 131.775V132.121L553.756 132.307V132.641L553.234 132.827V133.174L552.712 133.359V133.693L552.189 133.879V134.213L551.667 134.399V134.746L551.145 134.931V135.278L550.623 135.464V135.798L550.101 135.984V136.33L549.579 136.516V136.863L549.057 137.048V137.382L548.535 137.568V137.915L548.013 138.1V138.447L547.49 138.633V138.967L546.968 139.153V139.499L546.446 139.685V140.032L545.924 140.217V140.551L545.402 140.737V141.121L544.88 141.307V141.653L544.346 141.839V142.173L543.824 142.359V142.705L543.302 142.891V143.225L542.779 143.411V143.758L542.257 143.943V144.29L541.735 144.476V144.81L541.213 144.996V145.342L540.691 145.528V145.874L540.169 146.06V146.394L539.647 146.58V146.927L539.125 147.112V147.459L538.602 147.645V147.979L538.08 148.165L538.235 151.519L539.801 152.98C536.87 155.53 532.847 159.108 532.847 159.108C532.847 159.108 529.809 157.87 529.56 157.87C529.311 157.87 525.68 161.051 525.68 161.051L521.574 163.279L519.355 162.846L519.284 162.735L519.865 162.326L519.782 162.215L520.376 161.794L520.293 161.682L520.874 161.262L520.791 161.15L521.384 160.742L521.301 160.63L521.895 160.209L521.562 159.776L518.002 158.835L517.041 158.575C517.041 158.575 516.555 158.241 516.792 156.954C517.029 155.666 517.86 152.745 517.86 152.745L518.774 148.808L519.248 146.939H519.509L519.747 146.469H520.02L520.257 145.986H520.53L520.767 145.515H521.028L521.266 145.045H521.539L523.141 141.827L518.394 121.624C518.394 121.624 515.06 119.705 514.692 119.953L514.324 120.213L511.856 122.02L510.135 122.664L509.755 123.134H509.625L509.257 123.617H509.115L508.747 124.1H508.616L508.236 124.57H508.106L507.738 125.053H507.596L507.228 125.536H507.097L506.718 126.006H506.587L506.219 126.489H506.089L505.709 126.959H505.578L505.282 127.331L502.908 127.479L502.41 124.904L502.541 124.706H502.647V124.583L502.802 124.36L503.134 124.174V123.902L503.609 123.642V123.369L504.071 123.122V122.849L504.546 122.59V122.317L505.021 122.057V121.785L505.483 121.537V121.265L505.958 121.005V120.733L506.433 120.473V120.2L506.896 119.953V119.68L507.37 119.42L507.738 116.722L506.872 106.299L506.694 104.689H507.074L506.729 104.306L507.584 104.157L507.24 103.786L508.082 103.637L507.738 103.253L508.592 103.105L504.522 98.5989L499.835 97.9552L495.148 96.4202L493.558 95.1823L493.7 94.7367H494.032L494.21 94.2168H494.543L494.709 93.6845H495.053L495.219 93.1646H495.551L495.729 92.6446H496.062L496.228 92.1123H496.572L496.738 91.5924H497.07L497.236 91.0725H497.58L497.747 90.5402H498.091L498.257 90.0203H498.589L498.755 89.5004H499.099L499.598 87.953L495.895 85.7619L491.09 81.5159L485.156 82.0358L483.804 80.2904L483.424 76.5767L473.693 79.5352L467.535 82.7167V83.0014L467.06 83.2489V83.5337L466.597 83.7812V84.066L466.123 84.3012V84.5859L465.648 84.8335V85.1182L465.185 85.3658V85.6381L464.877 85.799L464.414 85.6752L462.409 84.1774L458.208 84.5611L451.432 79.6095L447.481 81.4045L446.745 79.6095V78.9411L446.923 78.8049V78.6811L447.469 78.285V78.1488L448.015 77.7527V77.6289L448.572 77.2204V77.0966L449.118 76.7004V76.5643L449.664 76.1681V76.0444L450.222 75.6358V75.5121L450.768 75.1159V74.9798L451.313 74.5836V74.4598L451.871 74.0637V73.9275L452.417 73.5314V73.3952L452.975 72.9991V72.8753L453.521 72.4792V72.343L454.066 71.9469V71.8107L454.624 71.4146V71.2908L455.17 70.8947V70.7585L455.716 70.3624V70.2262L456.274 69.8301L455.407 67.2553C454.57 67.3271 453.759 67.5936 453.034 68.0351C452.168 68.6788 449.7 68.3446 449.083 69.273C448.466 70.2015 442.615 71.7984 442.615 71.7984C442.615 71.7984 442.509 71.9717 442.366 72.244L442.105 72.3307C442.105 72.3307 441.998 72.504 441.856 72.7763L441.595 72.8506L441.358 73.2962L441.097 73.3829C441.097 73.3829 440.99 73.5562 440.847 73.8285L440.586 73.9152C440.586 73.9152 440.479 74.0885 440.337 74.3608L440.076 74.4351L439.839 74.8807L439.578 74.9674C439.578 74.9674 439.471 75.1407 439.328 75.413L439.056 75.5121C439.056 75.5121 438.949 75.6854 438.806 75.9577L438.557 76.032L438.308 76.4776L438.047 76.5643C438.047 76.5643 437.94 76.7376 437.798 77.0099L437.537 77.0966L437.287 77.5298L437.038 77.6165L436.789 78.0621L436.528 78.1488C436.528 78.1488 436.421 78.3221 436.279 78.5944L436.018 78.6811L435.769 79.1144L435.496 79.2258L435.246 79.6714L434.985 79.7581L432.126 80.996L428.376 83.2366V83.447L427.866 83.7689V83.9793L427.367 84.2888V84.4992L426.857 84.8211V85.0315L426.347 85.3534V85.5638L425.848 85.8733V86.0837L425.338 86.4056V86.6532H425.279L423.629 85.9352L421.778 81.4292L420.046 82.0729L412.392 84.8211L414.219 83.9174L414.041 83.7317L414.718 83.3851L414.54 83.1994L415.228 82.8652L415.05 82.6795L415.738 82.3329L415.56 82.1472L416.236 81.8006L416.059 81.6149L416.747 81.2807L416.569 81.095L417.257 80.7484L417.079 80.5627L417.755 80.2161L417.577 80.0304L418.266 79.6962L418.088 79.5105L418.776 79.1639L418.598 78.9782L419.274 78.644L419.096 78.4459L419.785 78.1117L419.607 77.926L420.295 77.5794L420.105 77.3937L420.793 77.0594L420.615 76.8614L421.303 76.5271L421.125 76.3415L421.814 75.9948L421.624 75.8092L422.312 75.4749L422.134 75.2892L422.822 74.9426L422.644 74.7569L423.321 74.4103L423.143 74.2246L423.831 73.8904L423.653 73.7047L424.341 73.3581L424.163 73.1724L424.84 72.8258L424.662 72.6401L425.35 72.3059L425.172 72.1202L425.86 71.7736L425.682 71.5879L426.359 71.2413L426.181 71.0556L426.869 70.7214L426.691 70.5357L427.379 70.1891L427.201 70.0034L427.877 69.6568L427.699 69.4711L428.388 69.1369L428.21 68.9512L428.898 68.6046L428.72 68.4189L429.396 68.0723L429.218 67.8866L429.907 67.5523L429.729 67.3667L430.417 67.02L430.239 66.8344L430.915 66.4877L430.737 66.3021L431.425 65.9678L431.247 65.7821L431.936 65.4355L431.758 65.2498L432.434 64.9156L432.256 64.7175L432.944 64.3833L432.766 64.1976L433.455 63.851L433.265 63.6653L433.953 63.3311L433.716 63.133L434.404 62.7988L434.226 62.6131L434.914 62.2665L433.799 61.1152L432.315 59.8773L421.351 60.2611L414.931 61.4247L411.609 61.5485L406.791 60.0011L402.27 59.048L401.404 54.5544L399.315 54.2944L399.101 54.8638H398.805L398.603 55.4209H398.295L398.093 55.9903H397.796L397.583 56.5598H397.286L397.179 56.8445L393.394 55.8542L381.527 51.1006L377.967 49.2066L374.182 46.8422L354.009 47.8326L282.42 42.9428L161.062 20.772L158.345 19.9055L150.359 17.4297H150.216L91.6914 0.458008L90.3742 1.29978L90.4454 1.46071L89.864 1.83208L89.9352 1.99301L89.3656 2.352V2.51293L88.796 2.8843L88.8672 3.04523L88.2858 3.4166L88.357 3.57752L87.8111 3.93651V4.09744L87.2415 4.46881L87.3127 4.62974L86.7313 5.00111L86.8025 5.16204L86.2329 5.52103V5.68196L85.6633 6.05333L85.7345 6.21426L85.153 6.58563L85.2242 6.74655L84.6546 7.10555V7.26647L84.0851 7.63784L84.1563 7.79877L83.5748 8.17014L83.646 8.31869L83.0764 8.69006V8.85099L82.5068 9.22236L82.578 9.38329L82.0085 9.75466V9.90321L81.4389 10.2746V10.4355L80.8693 10.8069L80.9405 10.9678L80.5014 11.2401L77.4874 10.8193L75.0904 8.76434L67.9705 1.33692H66.3686L66.2618 1.86922H65.8702L65.7515 2.38914H65.3599L65.265 2.8843H64.8616L64.7548 3.4166H64.3632L64.2445 3.93651H63.841L63.7342 4.46881H63.3308L63.224 4.9516H62.8917L62.7731 5.47151H62.3815L62.2747 6.00381H61.8712L61.7051 6.58563H61.3135L61.1948 7.10555H60.8033L60.6965 7.63784H60.293L60.1862 8.17014H59.7946L59.6878 8.6653H59.3318L59.225 9.1976H58.8216L58.7148 9.7299H58.3232L58.1452 10.2746H57.7417L57.6349 10.8069H57.2433L57.1247 11.3392H56.7331L56.6263 11.8591H56.2466L56.1398 12.3914H55.7719L55.6533 12.9237H55.2617L55.1549 13.4436H54.7514L54.6446 13.9759H54.2293L54.1106 14.4958H53.719L53.6122 15.0281H53.2088L53.102 15.5604H52.7104L52.5917 16.0803H52.212L52.1052 16.6126H51.7018L51.595 17.1449H51.2034L51.0847 17.6649H50.6931L50.5863 18.1972H50.1829L50.0761 18.7295H49.6845L49.5658 19.2494H49.1742L49.0674 19.7817H48.6521L48.5453 20.314H48.1537L48.035 20.8339H47.6435L47.5367 21.3662H47.1332L47.0264 21.8985H46.6348L46.528 22.4184H46.1246L46.0178 22.9507H45.6143L45.2109 24.919V36.1591L42.0069 46.7927L43.063 48.1915H42.8969L42.5528 48.761H42.3985L42.0425 49.318H41.8883L41.5441 49.8875H41.378L41.0339 50.4569H40.8796L39.159 52.9575L39.6574 57.3768L41.2238 58.1071V58.1814L40.666 57.8719V58.7137L40.1083 58.4042V59.2336L39.5625 58.9242V59.7659L39.159 59.4812L39.5743 67.1934L32.0867 76.1186L27.6961 89.129L22.8665 98.0047H22.7953V98.1162L22.6054 98.4628L22.285 98.537V98.9579L21.7866 99.057V99.4779L21.2764 99.5893V100.01L20.7661 100.122V100.542L20.2678 100.641V101.062L19.7575 101.174V101.508L19.2472 101.619V102.028L18.7489 102.139V102.56L18.2386 102.672V103.093L17.7283 103.192V103.612L17.23 103.724V104.145L16.7197 104.256V104.677L16.2095 104.776V105.222L15.7111 105.333V105.754L15.2008 105.865V106.286L14.6906 106.385V106.806L14.1922 106.918V107.339L13.6819 107.45V107.871L13.1717 107.97V108.391L12.6733 108.502V108.935L12.163 109.047V110.409L14.0616 112.649V121.748L13.7175 122.119L13.2547 122.651L12.7919 123.184L12.3173 123.704L11.3324 124.818L11.6646 126.873L13.0649 129.447L8.78111 136.999V142.656L8.69805 142.755L8.19966 143.262L7.6894 143.77L7.19102 144.29L6.69263 144.797L6.18238 145.305L5.68399 145.825L5.1856 146.332L4.67535 146.84L4.17696 147.36L3.67857 147.867L2.96659 148.548L2.4682 149.068L2.13595 150.603L5.50599 160.209L4.44989 169.593L4.04643 169.865V170.038L3.54804 170.397V170.571L3.03779 170.917V171.091L2.52754 171.45V171.623L2.02915 171.982V172.155L1.51889 172.502V172.675L1.00864 173.034V173.306L0.510254 173.665V173.839L0 174.185V175.126L2.95473 175.646L8.95911 187.22L6.4909 191.85L8.30646 194.71H10.6085L13.3971 193.249L15.4263 191.615L18.6658 192.172V192.382V192.469C18.6658 192.469 18.5709 192.469 18.5115 192.581H18.2861V192.89V192.964C18.2861 192.964 18.1911 192.964 18.1318 193.076H17.9182V193.385L17.8589 193.459C17.8589 193.459 17.7639 193.459 17.6928 193.558H17.4792L17.4198 193.856V193.942C17.4198 193.942 17.3249 193.942 17.2656 194.054H17.0401L16.9808 194.363V194.437C16.8858 194.437 16.696 194.673 16.4942 194.957C16.3875 194.957 16.1976 195.193 16.0077 195.477C15.9128 195.477 15.7111 195.712 15.5212 195.997C15.4263 195.997 15.2364 196.232 15.0347 196.517C14.9279 196.517 14.738 196.752 14.5482 197.037C14.4532 197.037 14.2515 197.272 14.0616 197.557C13.9667 197.557 13.7769 197.792 13.5751 198.077C13.4683 198.077 13.2785 198.324 13.0886 198.609C12.9937 198.609 12.7919 198.844 12.6021 199.129C12.3648 199.129 11.5341 200.59 11.5341 200.59L10.3475 214.9L11.9969 215.766H11.8664L12.5309 222.105L16.1501 232.144L19.71 237.628L21.6087 239.943L20.6237 253.151C21.1963 254.25 21.5969 255.436 21.8104 256.667C21.9351 257.731 22.211 258.77 22.6292 259.749L33.8903 263.178L48.4148 273.577L47.596 276.832L46.1127 279.828L55.2379 280.348L54.3361 282.576L53.9208 284.891L60.0913 292.318L56.8755 298.508L58.608 299.535L58.9402 301.256L71.1033 303.311L91.9762 305.762L90.1844 308.758L90.6353 310.553C90.6353 310.553 138.955 337.947 138.706 338.331C138.457 338.715 154.904 340.894 165.88 342.416L175.575 343.741L175.717 343.159H176.085L176.227 342.59H176.583L176.726 342.008H177.094L177.236 341.426H177.604L177.746 340.857H178.102L178.245 340.275H178.613L178.755 339.693H179.123L179.253 339.123H179.621L179.764 338.542H180.131L180.274 337.96H180.642L180.725 337.613L190.989 339.52L200.233 340.547L218.234 363.82L222.981 380.284L240.78 392.502L241.765 391.474L242.264 390.942L242.75 390.447L243.249 389.915L243.747 389.395L244.234 388.887L244.708 388.38L245.183 387.884L245.669 387.377L246.144 386.869L246.631 386.374L247.117 385.867L247.592 385.359L248.078 384.864L248.565 384.356L249.039 383.861L249.526 383.366L250.012 382.859L250.487 382.363L250.974 381.868L251.448 381.361L251.923 380.866L252.409 380.37L252.611 380.148L268.738 385.582L277.673 396.129L285.327 414.004L289.883 416.703L291.07 420.949L292.423 430.592L304.135 444.209H314.993L320.665 447.675H321.851L321.911 447.155H322.35L322.421 446.623H322.86L322.919 446.091H323.37L323.43 445.571H323.952L324.023 445.038H324.462L324.521 444.506H324.972L325.032 443.986H325.471L325.542 443.454H325.981L326.04 442.934H326.491L326.551 442.402H326.99L327.049 441.869H327.512L327.571 441.35H328.01L328.081 440.817H328.52L328.58 440.285H329.031L329.09 439.765H329.529L329.6 439.233H330.039L330.099 438.7H330.549L330.609 438.18H331.072L331.143 437.648H331.582L331.641 437.116H332.092L332.151 436.596H332.59L332.662 436.064H333.101L333.16 435.531H333.611L333.67 435.011H334.109L334.181 434.479H334.632L334.691 433.947H335.142L335.201 433.427H335.64L335.711 432.895H336.15L336.21 432.362H336.661L336.72 431.842H337.159L337.23 431.31H337.669L337.729 430.778H338.191L338.251 430.258H338.69L338.761 429.726H339.2L339.259 429.206H339.698L339.77 428.673H340.209L340.268 428.141H340.719L340.778 427.621H341.217L341.289 427.089H341.728L341.787 426.557H342.238L342.297 426.037H342.736L343.353 420.887L337.978 405.128H338.358L338.441 404.609H338.868L338.939 404.076H339.378V403.556H339.805L339.876 403.123L340.031 403.036H340.316V402.863L352.502 396.129L356.703 396.389V395.819H357.201V395.262H357.712V394.705H358.222V394.136H358.72V393.653H359.231V393.096H359.741V392.539H360.239V391.982H360.749V391.425H361.26V390.868H361.758V390.311H362.268V389.939H362.779V389.444L362.909 389.382H363.277V389.184L370.266 385.953H370.575L377.54 385.211L377.635 384.728H378.039L378.145 384.245H378.549L378.656 383.762H379.059L379.154 383.279H379.558V383.106L380.198 385.136L388.22 387.971L396.728 387.451L396.325 386.981H397.227L396.835 386.498H397.737L397.345 386.028L398.247 385.966L397.844 385.495H398.745L398.354 385.013H399.256L398.864 384.542L399.766 384.48L399.363 384.01H400.264L399.873 383.527H400.514L401.415 388.12L406.34 387.612L404.643 391.97L407.349 391.722L409.081 393.641L414.385 394.681L414.729 394.111H414.884L415.228 393.554H415.394L415.738 392.997H415.892L416.248 392.428H416.403L416.747 391.871H416.913L417.257 391.313H417.411L417.649 390.942L418.444 391.388L419.559 394.99L422.146 393.839V393.529L422.656 393.306V393.009L423.155 392.774V392.477L423.665 392.254V391.945L424.175 391.722V391.425L424.674 391.19V390.893L425.184 390.67V390.36L425.694 390.137V389.89L428.554 394.99L433.122 391.648L433.004 391.573L433.633 391.115L433.514 391.041L434.131 390.595L434.024 390.521L434.641 390.063L434.523 389.989L435.14 389.531L435.033 389.457L435.65 389.011L435.543 388.937L436.16 388.479L436.041 388.404L436.659 387.946L436.552 387.872L437.169 387.426L437.062 387.352L437.679 386.894L437.56 386.82L438.177 386.362L438.071 386.288L438.688 385.842L438.581 385.768L439.198 385.31L439.079 385.235L439.696 384.777L439.59 384.703L440.207 384.257L440.1 384.183L440.717 383.725L440.598 383.651L441.215 383.193L441.108 383.119L441.725 382.673L441.607 382.599L442.236 382.141L442.117 382.066L442.734 381.621L442.627 381.546L443.244 381.088L443.126 381.014L443.755 380.556L443.636 380.482L444.253 380.036L444.146 379.962L444.763 379.504L444.645 379.43L445.273 378.972L445.155 378.897L445.772 378.452L445.665 378.377L446.282 377.919L446.163 377.845L446.792 377.387L446.674 377.313L447.291 376.867L447.184 376.793L447.801 376.335L447.682 376.261L448.299 375.803L448.193 375.728L448.81 375.283L448.703 375.208L449.32 374.75L449.201 374.676L449.818 374.218L449.712 374.144L450.329 373.698L450.222 373.624L450.839 373.166L450.72 373.092L451.337 372.634L451.23 372.559L451.788 372.151L451.42 372.497L450.863 372.993L450.317 373.488L449.771 373.995L449.225 374.49L448.679 374.986L449.415 375.505L455.906 372.584L456.57 372.287L460.13 368.685L460.878 373.958L467.903 373.438L467.772 372.955H468.401L468.282 372.473H468.911L468.781 371.99H469.422L473.088 371.445L475.675 371.569L477.657 372.807L478.393 372.547L478.832 372.039H478.903L479.342 371.544L479.722 371.111L480.434 370.801C480.434 370.801 482.522 371.953 482.653 372.336C482.783 372.72 481.668 374.527 481.668 374.527L484.041 379.801H493.285L495.658 377.746L499.728 374.032L503.17 372.794L507.24 374.032L506.623 376.743L508.153 377.078L511.595 377.598C511.595 377.598 512.781 379.912 512.781 379.826C512.781 379.739 514.514 381.064 514.514 381.064L517.231 382.611C517.409 383.944 517.488 385.289 517.468 386.634C517.302 387.154 518.299 387.154 518.299 387.154L518.726 386.622H518.798L519.225 386.09H519.308L519.711 385.594L521.907 387.154L523.805 391.957L522.737 399.162C522.737 399.162 522.322 406.354 522.405 406.874C522.488 407.394 525.193 409.622 525.193 409.622L526.107 409.015V408.805L526.57 408.483V408.273L527.045 407.963V407.74L527.519 407.431V407.221L527.982 406.899V406.688L528.457 406.379V406.156L528.682 406.007V410.427H528.599V410.662L528.113 410.959V411.182L527.638 411.491V411.714L527.163 412.011V412.246L526.677 412.544V412.766L526.202 413.076V413.299L525.727 413.596L525.68 416.802L527.899 421.518L530.035 422.756L531.767 421.642L535.221 420.689C535.221 420.689 536.205 421.927 536.811 422.781H536.704C536.635 422.896 536.598 423.029 536.597 423.165C536.461 423.192 536.33 423.238 536.205 423.301C536.146 423.301 536.111 423.499 536.099 423.697C535.959 423.723 535.823 423.769 535.695 423.833C535.636 423.833 535.612 424.019 535.588 424.217C535.45 424.255 535.316 424.305 535.185 424.365C535.116 424.481 535.079 424.613 535.078 424.749C534.942 424.777 534.811 424.822 534.687 424.885C534.627 424.885 534.592 425.083 534.58 425.282C534.44 425.307 534.304 425.353 534.176 425.418C534.117 425.418 534.093 425.603 534.07 425.801C533.932 425.84 533.797 425.89 533.666 425.95C533.597 426.065 533.56 426.198 533.559 426.334C533.424 426.361 533.292 426.407 533.168 426.47C532.918 426.643 533.085 429.045 533.085 429.045L534.07 430.283L536.692 429.775L539.243 427.299L543.99 437.413L546.707 437.846L550.979 438.7V440.693L549.496 442.587L548.309 444.036L548.724 445.583H551.027V447.638C551.027 447.638 550.042 448.678 550.042 448.876C550.314 449.482 550.644 450.059 551.027 450.597L557.019 449.903L560.472 446.388L560.982 445.868L561.493 445.348L561.991 444.828L562.466 444.407L562.976 443.887L563.474 443.38L563.985 442.86L564.495 442.34L565.005 441.832L565.515 441.312L566.026 440.693L566.536 440.186L567.046 439.666L567.545 439.146L568.055 438.638L568.565 438.119L569.063 437.599L569.586 436.98L570.096 436.46L570.594 435.94L571.104 435.432L571.615 434.912L572.113 434.392L572.623 433.885L573.145 433.266L573.644 432.746L574.154 432.226L574.664 431.706L575.163 431.186L575.673 430.666L576.183 430.146L576.693 429.639L577.204 429.119L577.714 428.599L578.224 428.092L578.735 427.572L579.245 427.052L579.755 426.544L580.265 426.024L580.764 425.504L581.274 424.997C581.274 424.997 581.025 422.93 581.274 422.682C581.523 422.434 581.274 421.135 581.274 421.135L580.87 416.839V416.777L581.381 416.307L581.891 415.824L582.389 415.354L582.9 414.883L583.41 414.4L583.825 413.46L584.335 412.989L584.846 412.506L585.344 412.036L585.012 404.67L581.452 392.749L569.989 373.314L570.048 372.745L570.476 372.893L570.559 372.213L570.986 372.361L571.057 371.68L571.496 371.841L571.567 371.16L571.994 371.309L572.161 369.848L565.515 363.25C565.565 363.215 565.605 363.169 565.634 363.114C565.637 363.081 565.637 363.048 565.634 363.015C565.835 362.909 566.016 362.766 566.168 362.594C566.168 362.594 566.168 362.594 566.168 362.483C566.374 362.386 566.556 362.242 566.702 362.062V361.963C566.9 361.853 567.081 361.711 567.236 361.542C567.319 361.282 560.899 348.507 560.899 348.507L560.579 341.476L559.392 336.759L559.25 336.153L558.063 334.271C558.063 334.271 557.897 331.523 557.897 331.263C557.897 331.003 559.214 329.641 559.214 329.641C559.214 329.641 559.06 325.927 559.108 324.207L559.57 323.984V323.674L560.033 323.452V323.142L560.496 322.932V322.622L560.959 322.399L561.41 319.156H561.481L561.647 318.834L561.991 318.624L562.157 318.302L562.501 318.104L562.667 317.782L563 317.572L563.166 317.25L563.51 317.039L564.329 315.467V315.393L564.542 314.984H564.839V314.477H565.337V313.957H565.848V313.449H566.358V312.942H566.856V312.422H567.367V311.914H567.877V311.407H568.399V310.899H568.909V310.392H569.419V309.476L569.799 308.919V309.067L570.262 308.386V308.535L570.725 307.866V308.003L571.188 307.334V307.483L571.65 306.814V306.95L572.113 306.282V306.418L572.576 305.75V305.898L573.027 305.23V305.366L573.49 304.697V304.834L573.952 304.165V304.314L574.403 303.645V303.781L574.866 303.113V303.249L575.329 302.581V302.729L575.78 302.061V302.197L576.243 301.528V301.677L576.705 300.996V301.145L577.156 300.476V300.612L577.619 299.944V300.092L578.082 299.412V299.56L578.426 299.065L579.114 299.771C579.114 299.771 579.53 299.771 579.684 299.523C579.724 299.434 579.745 299.337 579.743 299.238C579.83 299.231 579.915 299.205 579.993 299.162C580.07 299.12 580.139 299.061 580.194 298.991C580.23 298.9 580.25 298.804 580.253 298.706C580.341 298.698 580.426 298.673 580.503 298.63C580.58 298.587 580.649 298.529 580.704 298.458C580.72 298.364 580.72 298.268 580.704 298.174C580.791 298.168 580.875 298.145 580.953 298.104C581.03 298.064 581.099 298.007 581.155 297.938C581.19 297.848 581.21 297.751 581.215 297.654C581.302 297.646 581.387 297.62 581.464 297.578C581.542 297.535 581.61 297.477 581.666 297.406C581.836 297.484 582.028 297.495 582.207 297.439C582.385 297.382 582.538 297.261 582.639 297.097C582.726 297.089 582.811 297.063 582.888 297.021C582.966 296.978 583.034 296.92 583.089 296.849C583.105 296.755 583.105 296.659 583.089 296.564C583.176 296.559 583.261 296.535 583.338 296.495C583.416 296.455 583.484 296.398 583.54 296.329C583.576 296.239 583.596 296.142 583.6 296.044C583.687 296.037 583.772 296.011 583.849 295.968C583.927 295.926 583.995 295.868 584.051 295.797C584.065 295.703 584.065 295.606 584.051 295.512C584.14 295.505 584.226 295.479 584.306 295.437C584.385 295.394 584.456 295.336 584.513 295.265C584.529 295.17 584.529 295.074 584.513 294.98C584.6 294.974 584.684 294.951 584.762 294.91C584.839 294.87 584.908 294.814 584.964 294.745C585 294.654 585.02 294.558 585.024 294.46C585.111 294.452 585.196 294.427 585.273 294.384C585.351 294.341 585.419 294.283 585.475 294.212C585.489 294.118 585.489 294.022 585.475 293.928C585.564 293.92 585.65 293.895 585.73 293.852C585.809 293.81 585.88 293.751 585.937 293.68C585.953 293.586 585.953 293.49 585.937 293.395C586.024 293.39 586.108 293.366 586.186 293.326C586.263 293.286 586.332 293.229 586.388 293.16C586.424 293.07 586.444 292.973 586.448 292.875C586.535 292.868 586.62 292.842 586.697 292.799C586.775 292.757 586.843 292.699 586.899 292.628C586.913 292.534 586.913 292.437 586.899 292.343C586.988 292.336 587.074 292.31 587.154 292.268C587.233 292.225 587.304 292.167 587.361 292.096C587.377 292.001 587.377 291.905 587.361 291.811C587.448 291.809 587.534 291.786 587.612 291.746C587.69 291.705 587.758 291.647 587.812 291.576C587.848 291.485 587.868 291.389 587.872 291.291C587.959 291.283 588.044 291.257 588.121 291.215C588.199 291.172 588.267 291.114 588.323 291.043C588.338 290.949 588.338 290.853 588.323 290.759C588.412 290.754 588.5 290.73 588.58 290.687C588.659 290.644 588.73 290.584 588.785 290.511C588.801 290.417 588.801 290.321 588.785 290.226C588.872 290.224 588.958 290.202 589.036 290.161C589.114 290.121 589.182 290.062 589.236 289.991C589.339 289.976 589.439 289.94 589.528 289.885C589.618 289.83 589.696 289.756 589.758 289.669C589.846 289.662 589.93 289.636 590.008 289.593C590.085 289.551 590.154 289.492 590.209 289.422C590.225 289.327 590.225 289.231 590.209 289.137C590.299 289.133 590.387 289.108 590.466 289.065C590.546 289.023 590.616 288.963 590.672 288.889C590.688 288.795 590.688 288.699 590.672 288.605C590.759 288.602 590.845 288.58 590.923 288.54C591.001 288.499 591.069 288.441 591.123 288.369C591.159 288.279 591.179 288.183 591.182 288.085C591.27 288.077 591.354 288.051 591.432 288.009C591.509 287.966 591.578 287.908 591.633 287.837C591.649 287.743 591.649 287.647 591.633 287.552C591.701 287.56 591.77 287.552 591.834 287.529C591.898 287.505 591.957 287.467 592.006 287.418C592.054 287.368 592.092 287.308 592.116 287.241C592.14 287.175 592.149 287.103 592.144 287.033C592.231 287.025 592.316 286.999 592.393 286.957C592.471 286.914 592.539 286.856 592.594 286.785C592.63 286.695 592.651 286.598 592.654 286.5C592.741 286.493 592.826 286.467 592.903 286.424C592.981 286.382 593.049 286.323 593.105 286.253C593.12 286.158 593.12 286.062 593.105 285.968C593.172 285.975 593.241 285.967 593.305 285.944C593.37 285.921 593.428 285.883 593.477 285.833C593.526 285.784 593.563 285.723 593.587 285.657C593.611 285.59 593.621 285.519 593.615 285.448C593.702 285.44 593.787 285.415 593.865 285.372C593.942 285.33 594.01 285.271 594.066 285.2C594.102 285.11 594.122 285.014 594.125 284.916C594.212 284.908 594.297 284.882 594.375 284.84C594.452 284.797 594.521 284.739 594.576 284.668C594.592 284.574 594.592 284.478 594.576 284.383C594.663 284.378 594.747 284.354 594.825 284.314C594.902 284.274 594.971 284.217 595.027 284.148C595.062 284.057 595.082 283.961 595.086 283.863C595.174 283.856 595.258 283.83 595.336 283.788C595.413 283.745 595.482 283.687 595.537 283.616C595.558 283.522 595.558 283.425 595.537 283.331C595.627 283.325 595.714 283.3 595.793 283.258C595.873 283.215 595.943 283.156 596 283.084C596.016 282.989 596.016 282.893 596 282.799C596.087 282.794 596.171 282.77 596.249 282.73C596.326 282.689 596.395 282.633 596.451 282.564C596.487 282.473 596.507 282.377 596.51 282.279C596.598 282.271 596.682 282.246 596.76 282.203C596.837 282.16 596.906 282.102 596.961 282.031C596.976 281.937 596.976 281.841 596.961 281.747C597.05 281.739 597.137 281.714 597.216 281.671C597.296 281.629 597.366 281.57 597.424 281.499C597.44 281.405 597.44 281.309 597.424 281.214C597.511 281.209 597.595 281.185 597.673 281.145C597.75 281.105 597.819 281.048 597.875 280.979C597.911 280.889 597.931 280.792 597.934 280.694C598.022 280.687 598.106 280.661 598.184 280.618C598.261 280.576 598.33 280.518 598.385 280.447C598.4 280.353 598.4 280.256 598.385 280.162C598.474 280.155 598.561 280.129 598.64 280.087C598.72 280.044 598.79 279.986 598.848 279.915C598.864 279.82 598.864 279.724 598.848 279.63C598.935 279.625 599.019 279.601 599.097 279.56C599.174 279.52 599.243 279.464 599.299 279.395C599.335 279.304 599.355 279.208 599.358 279.11C599.445 279.102 599.53 279.076 599.608 279.034C599.685 278.991 599.754 278.933 599.809 278.862C599.824 278.768 599.824 278.672 599.809 278.578C599.899 278.573 599.986 278.549 600.066 278.506C600.146 278.463 600.216 278.403 600.272 278.33C600.288 278.236 600.288 278.14 600.272 278.045C600.359 278.043 600.445 278.021 600.523 277.98C600.601 277.94 600.669 277.881 600.723 277.81C600.806 277.045 600.806 276.273 600.723 275.508H600.83V274.975H601.328V274.455H601.838V273.923H602.349V273.391H602.847V272.871H603.998V272.339H604.508V271.819H605.007V271.286H605.517V270.754H606.027V270.234H606.526V269.702H607.036V269.17H607.558V268.65H608.056V268.117H608.567V267.585H609.077V267.065H609.575V266.533H610.085V266.001H610.584V265.481H611.118V264.948H611.628V264.416H612.126V263.896H612.637V263.364H613.147V262.832H613.645V262.312H614.156V261.779H614.678V261.247H615.176V260.727H615.686V260.195H616.197V259.662H616.695V259.143H617.205V258.61H617.716V258.09H618.214V253.795H617.027L614.654 255.936L613.467 256.37L612.874 256.159H612.945L613.301 255.639H613.491L613.859 255.119H614.001L614.369 254.599H614.512C614.98 253.959 615.378 253.265 615.698 252.532C615.673 252.355 615.589 252.193 615.461 252.074L615.734 251.814L616.268 251.294L616.814 250.787L617.348 250.267L617.882 249.747L618.427 249.239L618.961 248.719L619.495 248.2L620.041 247.692L620.575 247.172L621.121 246.652L619.994 246.293V246.219L620.504 245.736L621.014 245.253L621.525 244.758L622.035 244.275L622.545 243.793L623.055 243.297L622.889 239.782L621.94 237.851L622.533 238.445L621.62 236.514L623.044 237.913L622.118 235.981L623.554 237.393L620.267 230.522L619.08 228.814V228.517L619.59 223.367L617.988 223.714L617.81 224.159L617.478 224.234L617.312 224.692L616.968 224.766L616.897 224.989L613.254 224.655L613.147 225.212H612.755L612.684 225.583L611.735 225.137C611.705 225.052 611.669 224.97 611.628 224.89C611.96 224.952 612.257 224.952 612.269 224.778C612.258 224.629 612.213 224.485 612.138 224.358C612.471 224.419 612.767 224.419 612.779 224.246C612.768 224.099 612.719 223.958 612.637 223.838C612.981 223.838 613.266 223.838 613.289 223.714C613.265 223.57 613.217 223.432 613.147 223.305C613.479 223.367 613.776 223.367 613.788 223.194C613.788 222.761 612.352 220.879 612.352 220.879L610.809 219.641L611.106 219.431V219.22L611.557 218.911L611.616 218.688L612.067 218.378V218.168L612.518 217.846V217.636L612.969 217.326V217.103L613.42 216.794V216.583L613.871 216.262L613.93 216.051L614.381 215.742V215.519L614.832 215.209V214.999L615.283 214.677V214.467L615.734 214.157V213.934L616.185 213.625V213.414L616.636 213.093V212.882L617.087 212.573L617.146 212.35L617.597 212.04V211.83L618.048 211.508V211.298L618.499 210.988L618.558 210.765L619.009 210.456V210.245L619.46 209.924L619.519 209.713L619.97 209.404V209.181L620.421 208.871V208.661L620.872 208.339V208.129L621.323 207.819V207.609L621.762 207.287L622.391 204.898H622.474V204.675L622.972 204.365V204.143L623.483 203.833V203.623L623.993 203.313V199.958L624.444 199.191L625.88 196.789L623.744 195.081L625.357 193.113L624.776 190.798L621.335 187.629L620.967 183.519L621.359 183.222V183.061L621.845 182.69V182.529L622.32 182.157V181.996L622.806 181.637V181.477L623.293 181.105L623.696 178.109L625.915 173.158L627.102 169.296V168.813L629.701 166.77L629.629 166.696L630.199 166.238L630.128 166.164L630.709 165.706L630.638 165.631L631.219 165.186L631.148 165.111L631.718 164.653L631.647 164.579L632.228 164.121L632.157 164.047L632.738 163.601L632.667 163.527L633.237 163.069L633.166 162.995L633.747 162.537L633.676 162.462L634.257 162.017L634.186 161.942L634.756 161.484L634.684 161.41L635.266 160.952L635.195 160.878L635.776 160.432L635.705 160.358L636.275 159.9L636.203 159.826L636.785 159.368L636.714 159.293L637.295 158.848L637.224 158.773L637.793 158.315L637.722 158.241L638.304 157.783H638.232L638.814 157.325L638.743 157.251L639.312 156.793L639.241 156.718L639.823 156.26H639.751L640.321 155.802L640.262 155.728L640.831 155.27L640.76 155.196L641.341 154.75L641.27 154.676L641.84 154.218L641.781 154.144L642.35 153.686L642.279 153.611L642.86 153.166L642.789 153.091L643.359 152.633L647.453 149.477H649.102L649.387 148.957H649.6L649.897 148.425H650.277L650.573 147.892H650.775L651.072 147.372H651.285L651.582 146.84H651.796L652.092 146.308H652.294L652.591 145.788H652.804L653.101 145.255H653.315L653.611 144.723H653.813L654.11 144.203H654.323L654.62 143.671H654.834L655.13 143.151H655.332L655.629 142.619H655.842L656.139 142.086H656.352L656.649 141.567H656.851L657.147 141.034H657.361L657.658 140.502H657.871L658.168 139.982H658.37L658.666 139.45H658.88L659.177 138.917H659.39L659.675 138.398H659.889L660.185 137.865H660.399L660.696 137.333H660.909L661.194 136.813H661.407L661.704 136.281H661.918L662.214 135.748H662.428L662.713 135.228H662.926L663.223 134.696H663.33L663.627 134.164H663.828L664.125 133.644H664.338L664.635 133.112H664.849L665.145 132.579H665.347L665.644 132.059H665.857L666.154 131.527H666.368L666.664 130.995H666.89L667.186 130.475H667.4L667.697 129.943H667.91L668.207 129.423H668.409L668.705 128.89H668.919L669.216 128.358H669.429L669.726 127.838H669.928L670.509 126.798L670.26 124.149L669.844 122.602L667.388 120.126C667.388 120.126 666.474 119.185 666.201 119.185C665.731 119.286 665.31 119.558 665.015 119.953L664.908 120.089C664.759 120.204 664.624 120.337 664.505 120.485L664.41 120.621C664.257 120.736 664.118 120.869 663.994 121.017L663.899 121.154C663.751 121.265 663.616 121.394 663.496 121.537L663.389 121.673C663.24 121.789 663.105 121.922 662.986 122.07L662.891 122.206C662.738 122.321 662.599 122.454 662.475 122.602C662.441 122.645 662.409 122.69 662.381 122.738C662.232 122.849 662.097 122.978 661.977 123.122L661.87 123.258C661.721 123.373 661.586 123.506 661.467 123.654L661.372 123.79H661.301C661.229 123.06 660.897 121.314 660.897 121.314L658.678 120.46L654.323 120.968L654.572 119.086L657.29 116.165L657.776 113.256H656.293L655.474 110.681L655.142 109.653L655.308 109.468L657.397 107.029V104.628L657.551 104.467L657.907 104.095L658.049 103.934L658.405 103.563L658.56 103.414L658.916 103.043L659.07 102.882L659.426 102.511L659.568 102.35L660.078 101.83V100.988C660.078 100.988 660.15 100.988 660.173 100.988C660.197 100.988 660.328 100.666 660.387 100.307C660.518 100.406 660.624 100.481 660.684 100.468C660.743 100.456 660.838 100.134 660.885 99.775C660.965 99.8611 661.069 99.9176 661.182 99.9359C661.277 99.9359 661.348 99.614 661.396 99.2427C661.526 99.3541 661.645 99.4283 661.692 99.4036C661.74 99.3788 661.847 99.0817 661.894 98.7227C662.036 98.8218 662.143 98.896 662.203 98.8837C662.262 98.8713 662.357 98.5494 662.404 98.1904C662.484 98.2766 662.588 98.3331 662.701 98.3514C662.796 98.3514 662.867 98.0295 662.915 97.6581C663.045 97.7695 663.164 97.8438 663.211 97.8191C663.259 97.7943 663.365 97.4972 663.413 97.1382C663.555 97.2373 663.662 97.3115 663.721 97.2991C663.781 97.2868 663.876 96.9649 663.923 96.6059C664.054 96.7173 664.172 96.7916 664.22 96.7668C664.267 96.7421 664.386 96.445 664.433 96.0736C664.564 96.185 664.683 96.2593 664.73 96.2345C664.778 96.2098 664.884 95.9127 664.932 95.5537C665.074 95.6527 665.181 95.727 665.24 95.7146C665.3 95.7023 665.49 94.7243 665.537 94.1054V93.9816H665.929L666.225 93.4245H666.427L666.724 92.8551H666.937L667.234 92.298H667.447L667.744 91.741H667.946L668.243 91.1839H668.456L668.753 90.6268H668.966L669.263 90.3669H669.465L669.761 89.8098H669.975L670.272 89.2528H670.485L670.77 88.6833H670.984L671.28 88.1263H671.494L671.791 87.5692H672.004L672.289 86.9998H672.503L672.823 86.6532H673.037L673.333 86.0961H673.547L673.832 85.5267H674.045L674.342 84.9696H674.555L674.852 84.4126H675.054L675.35 83.8431H675.564L675.861 83.2861H676.074L676.371 82.729H676.573L676.869 82.1596H677.083L677.38 81.6025H677.593L677.89 81.0455H678.092L678.388 80.476H678.602L678.899 79.919H679.112L679.409 79.3619H679.61L679.907 78.7925H680.121L680.417 78.2354H680.631L680.928 77.6784H681.129L681.426 77.1213H681.64L681.936 76.5643H682.15L682.447 75.9948H682.648L682.945 75.4378H683.159L683.455 74.8807H683.669L683.954 74.3113H684.167L684.464 73.7542H684.677L684.974 73.1972H685.188L685.472 72.6277H685.686L685.983 72.0707H686.196L686.493 71.5136H686.695L687.608 69.793L687.929 68.3694L682.043 59.2708ZM458.362 111.783V111.597L457.816 112.303V112.117L457.259 112.835V112.649L456.713 113.367V113.181L456.167 113.887V113.701L455.609 114.419V114.234L455.063 114.952V114.766L454.517 115.472V115.286L453.96 116.004V115.818L453.414 116.536V116.35L452.868 117.056V116.87L452.619 117.192L452.559 116.932L453.58 115.15H453.651V114.964L453.865 114.605H454.138L454.209 114.036H454.636L454.719 113.466H455.146L455.229 112.909H455.645L455.728 112.34H456.155L456.238 111.77H456.665V111.411L457.009 111.238H457.116L457.994 111.325L458.362 111.783ZM473.254 111.114V111.263L472.732 111.547V111.795L472.21 112.08V112.315L471.7 112.612V112.847L471.178 113.132V113.38L470.656 113.664V113.899L470.134 114.197V114.432L469.611 114.716V114.964L469.089 115.249V115.484L468.567 115.781V116.016L468.045 116.301V116.536L467.523 116.833V117.068L467.001 117.366L467.096 118.938L466.645 119.544V119.396L466.348 120.077V119.928L465.85 120.609V120.46L465.34 121.129V120.98L464.829 121.661V121.513L464.331 122.193V122.032L463.821 122.713V122.552L463.322 123.233V123.085L462.788 123.79V123.629L462.278 124.31V124.162L461.78 124.842V124.694L461.269 125.375V125.214L458.671 128.742L457.484 131.032L457.33 131.317L456.974 131.527V131.738L456.63 131.936L463.619 112.03H464.212L467.179 114.345L467.428 113.615L467.677 113.813L467.938 113.082L468.187 113.28L468.437 112.562L468.698 112.761L468.947 112.03L469.196 112.228L469.457 111.498L469.706 111.696L469.92 111.089H470.11L470.217 111.176V111.089L473.254 111.114Z" fill="#49626B"/>
</g>
<path d="M114.511 274.505L115.698 270.655L124.206 258.041L120.753 247.246L69.3955 166.461L73.2164 159.689L70.7482 158.662L83.196 117.972L34.544 101.879H32.764L31.7791 102.993L32.0401 105.11L33.4641 107.698L29.1922 115.236V121.067L23.0336 127.256L22.7013 128.804L26.107 138.472L24.9203 149.353L20.6484 152.361V153.302L23.6032 153.822L29.6075 165.396L27.1393 170.026L28.9549 172.935H31.2451L34.0456 171.487L36.0154 169.853L44.9745 171.4L37.2495 172.427L36.0628 178.679H34.6152L33.8794 176.364C33.8794 176.364 32.6928 177.602 32.4792 177.602C32.2656 177.602 31.4112 179.063 31.4112 179.063L30.2246 193.385L31.874 194.239H32.5267L33.1912 200.59L36.8104 210.617L40.3703 216.113L42.269 218.428L41.284 231.624C41.8555 232.723 42.256 233.91 42.4707 235.14C42.5962 236.209 42.8763 237.252 43.3013 238.234L54.5862 241.626L68.9683 251.827L68.1495 255.082L66.6662 258.09L75.7914 258.598L74.8896 260.838L74.4743 263.153L80.6448 270.581L77.429 276.77L79.1615 277.798L79.4937 279.518L91.6568 281.573L112.53 283.975L116.73 283.888L114.511 274.505Z" fill="#D7E9F2"/>
<path d="M85.0943 56.8321L115.828 57.0054L135.396 63.3559L150.169 17.3306H150.027L91.5021 0.334229L90.185 1.2379L91.0038 3.20616L90.185 11.7353L91.0038 17.7268L91.1699 18.7666L88.3813 19.4474L84.0857 26.4787C84.0857 26.4787 82.2938 22.5298 82.7922 22.0223C83.2906 21.5147 85.0943 11.7353 85.0943 11.7353L77.6897 10.6955L74.9011 8.66531L67.7813 1.2379H66.1793L65.7759 3.20616V14.4339L62.5719 25.0675L64.3756 27.4691L64.7079 30.2172L62.1566 33.9928V28.707L61.4209 28.5337L59.7715 31.1951L60.2699 35.6145L72.0176 41.0612V44.6635L72.599 49.2933L85.0943 56.8321Z" fill="#D7E9F2"/>
<path d="M133.745 78.6192L140.319 75.0169L135.181 63.2816L115.827 57.0055L85.0928 56.8321L72.5975 49.2933L72.0161 44.6636L59.77 37.7065L60.1853 45.4311L52.6977 54.344L48.2596 67.2924L37.9834 86.1581L32.7266 87.2722V88.6463L34.6133 90.8745V101.941H34.5065L83.1942 117.972L119.944 127.665L133.745 78.6192Z" fill="#39979C"/>
<path d="M196.139 103.984L192.318 103.08C192.318 103.08 190.348 101.842 189.945 101.966C189.542 102.09 174.412 99.4902 174.412 99.4902L168.989 90.0945L166.034 75.314L165.287 74.7941L163.068 76.849H162.083L162.569 71.6746L166.639 60.3477L163.305 53.923L162.201 45.5548L155.082 33.7204C155.082 33.7204 156.85 25.4636 158.155 19.794L150.169 17.3182L135.395 63.3558L135.182 63.2816L140.332 75.0169L133.746 78.6192L119.945 127.665L187.999 144.476L196.139 103.984Z" fill="#D7E9F2"/>
<path d="M120.895 237.665L124.253 226.214L129.07 226.796L132.393 230.906L132.832 230.782L152.625 135.736L119.945 127.665L83.1951 117.972L70.7473 158.625L73.2155 159.652L69.3945 166.461L120.8 247.246L122.9 243.57L120.895 237.665Z" fill="#D7E9F2"/>
<path d="M135.847 216.299L132.821 230.782L132.394 230.906L129.071 226.796L124.253 226.214L120.895 237.677L122.901 243.582L120.8 247.296L124.253 258.09L115.745 270.705L114.559 274.554L116.79 283.95L112.589 284.037L110.785 287.032L111.236 288.84C111.236 288.84 159.568 316.235 159.319 316.618C159.069 317.002 175.516 319.181 186.493 320.691L198.905 228.901L135.847 216.299Z" fill="#D7E9F2"/>
<path d="M274.315 106.46L282.206 42.8809L160.873 20.6482L158.155 19.8064C156.85 25.476 155.082 33.7328 155.082 33.7328L162.202 45.5672L163.305 53.9354L166.64 60.3601L162.57 71.6745L162.071 76.8118H163.056L165.275 74.7569L166.023 75.2768L168.978 90.0574L174.436 99.4531C174.436 99.4531 189.601 102.115 189.969 101.929C190.337 101.743 192.342 103.043 192.342 103.043L196.163 103.947L197.694 94.8976L274.315 106.46Z" fill="#D7E9F2"/>
<path d="M185.21 159.566L187.998 144.476L152.625 135.736L135.846 216.299L198.856 228.851L208.053 164.195L185.21 159.566Z" fill="#D7E9F2"/>
<path d="M356.668 73.3458L352.36 51.0883L353.761 47.5726H353.713L282.206 42.8191L276.285 90.4783L358.4 96.3584L356.668 73.3458Z" fill="#D7E9F2"/>
<path d="M274.315 106.398L197.671 94.91L196.14 103.959L188 144.476L185.211 159.566L208.054 164.195L266.911 172.601L274.315 106.398Z" fill="#D7E9F2"/>
<path d="M286.146 239.522L290.751 174.309L266.911 172.601L208.054 164.195L198.857 228.851L272.085 239.522H286.146Z" fill="#D7E9F2"/>
<path d="M266.09 320.617L272.593 239.497H272.095L198.856 228.826L186.443 320.617L196.138 321.954L197.669 315.641L211.553 318.215L220.797 319.243V315.43L266.09 320.617Z" fill="#D7E9F2"/>
<path d="M392.776 347.182C393.245 346.561 393.783 346 394.378 345.511L395.244 342.936L392.278 340.758L390.806 337.799V331.238L386.238 322.87V301.268L383.283 300.365L380.696 301.268L372.603 295.475L357.177 297.951L355.813 295.859L350.259 294.188V296.886H348.657L347.471 293.68L345.311 295.475L337.788 296.886L333.468 290.078L332.365 292.058H329.647L318.018 284.544L309.142 282.489L310.329 249.809L272.012 246.813L266.079 320.642L220.785 315.455V319.268L238.786 342.553L243.474 359.017L261.273 371.235L262.258 370.207C262.258 370.207 265.094 362.879 265.225 362.495C265.355 362.111 270.648 357.345 270.648 357.345L289.752 363.77L298.261 374.317L305.914 392.205L310.471 394.903L311.658 399.149L313.011 408.793L324.723 422.41H335.58L341.252 425.888H342.439L343.044 420.738L336.826 402.318H340.647L341.751 394.73L338.547 394.086L338.179 392.923L344.219 392.415L353.831 384.988L373.066 374.305L377.267 374.565V372.51L375.665 371.99L374.063 365.305C374.063 365.305 378.81 362.829 378.81 363.25V369.811L390.771 364.278H391.079L392.005 359.041C392.005 359.041 392.669 347.566 392.776 347.182Z" fill="#D7E9F2"/>
<path d="M380.02 243.595L286.145 239.522H272.593L272 246.813L310.317 249.809L309.082 282.489L317.958 284.544L329.671 292.058H332.388L333.492 290.078L337.811 296.886L345.322 295.475L347.423 293.68L348.657 296.886H350.259V294.188L355.812 295.859L357.165 297.914L372.579 295.475L380.72 301.268L382.559 300.625L380.02 252.693V243.595Z" fill="#D7E9F2"/>
<path d="M339.082 150.814L347.958 147.905L359.302 153.389L358.4 141.208L355.03 137.444H359.302L358.4 96.3583L276.285 90.4783L274.315 106.398L270.471 140.725L319.847 143.448L339.082 150.814Z" fill="#D7E9F2"/>
<path d="M418.325 130.71L415.738 130.19V128.519L411.418 127.232L408.333 122.478L405.746 121.933L399.457 115.15L401.795 109.233V107.561L400.323 100.481L401.557 99.317L404.014 98.2895L405.995 96.3584L408.333 86.0714V80.6742L410.801 77.9755L414.005 76.9481L415.358 71.7984L434.724 62.1551L433.608 60.9915L432.125 59.7041L421.161 60.0878L414.741 61.2515L411.418 61.3753L406.612 59.8403L402.044 58.9366L401.178 54.4306L399.089 54.1831L398.104 56.8817L393.168 55.5943L381.337 50.8283L377.718 48.9467L373.932 46.5699L353.76 47.5726L352.359 51.0883L356.667 73.3458L358.399 96.3584L359.301 137.444H418.325V130.71Z" fill="#D7E9F2"/>
<path d="M431.757 90.4783L438.545 89.2404L450.744 96.9649L454.576 103.984L457.234 108.106L457.899 105.395L463.203 97.4229L466.656 95.1081L467.641 99.0941L469.125 99.2179L469.611 95.7518L470.109 93.9444L478.119 89.6984L484.776 90.3421L487.743 92.657L488.229 91.2458L487.98 89.4385L498.957 89.3147L499.455 87.7673L495.753 85.5886L491.006 81.3426L485.073 81.8501L483.72 80.1047L483.352 76.4529L473.61 79.4114L467.44 82.63L467.19 84.5611L466.953 86.3561L464.117 85.5886L462.266 84.0412L458.065 84.4249L451.289 79.4733L447.338 81.2807L446.602 79.4733L446.483 76.391L450.922 73.8533L453.758 70.8947L455.36 69.7434L454.481 67.1686C453.645 67.2337 452.833 67.4961 452.108 67.9361C451.242 68.5798 448.774 68.2579 448.157 69.174C447.54 70.09 442.366 71.7241 442.366 71.7241C441.756 72.7117 441.299 73.7938 441.013 74.9302V77.1213L431.888 80.835L428.186 83.1499V86.7522L431.757 90.4783Z" fill="#D7E9F2"/>
<path d="M371.144 193.521L368.51 185.97L364.891 182.294L363.906 169.853L360.12 158.192L359.302 153.389L347.957 147.905L339.081 150.814L319.846 143.448L270.47 140.725L266.91 172.601L290.75 174.309L289.611 190.402L371.144 193.521Z" fill="#D7E9F2"/>
<path d="M374.753 205.356L377.221 198.151L371.145 193.521L289.611 190.402L286.146 239.522L380.021 243.595L378.704 209.131L374.753 205.356Z" fill="#D7E9F2"/>
<path d="M416.841 189.238H419.06L423.997 179.459L423.747 174.953L432.991 164.666V163.118L420.294 149.105V140.725L418.324 137.444H359.301H355.029L358.399 141.208L359.301 153.389L360.12 158.192L363.905 169.853L364.89 182.294L368.225 185.685L413.886 186.02L416.841 189.238Z" fill="#D7E9F2"/>
<path d="M437.714 257.15H444.383V252.941C444.383 252.941 444.703 247.717 444.953 247.717H450.126L451.04 245.823L448.975 242.22L444.786 239.522L443.968 231.426L433.525 221.3L434.344 219.592L435.531 218.638L434.878 211.607L431.093 211.186L419.345 200.206L418.692 189.238H416.794L413.839 186.02L368.225 185.685L368.509 185.97L371.144 193.521L377.219 198.151L374.751 205.356L378.703 209.131L380.02 243.595V252.681V253.126L437.121 250.799L437.714 257.15Z" fill="#D7E9F2"/>
<path d="M429.29 305.118L426.834 296.379L427.57 294.311L439.65 273.23V270.395L444.088 262.287L444.384 257.15H437.727L437.146 250.799L380.045 253.126L382.561 300.625L383.308 300.365L386.263 301.268V302.556V309.364H427.938L429.29 305.118Z" fill="#D7E9F2"/>
<path d="M444.988 346.798L445.605 341.525L421.066 343.84L430.559 320.691L427.972 309.364H386.262V322.87L390.83 331.238V337.799L392.302 340.757L395.268 342.936L394.402 345.511C393.807 346 393.269 346.561 392.8 347.182C392.67 347.566 392.064 359.017 392.064 359.017L391.139 364.253L398.104 363.523L399.208 358.249L400.81 363.263L408.832 366.085L417.34 365.577L414.005 361.591L420.911 360.353L422.015 366.011L426.951 365.491L425.231 370.257L427.936 369.997L429.669 371.928L434.961 372.955L437.429 368.969L439.031 369.873L440.147 373.475L442.734 372.312V366.914L445.819 367.558L449.142 373.475L453.71 370.133L450.376 367.942L448.157 363.176L452.346 362.408L451.74 358.039L448.904 361.257L444.834 361.121L445.202 357.902L448.287 356.665L444.454 356.268L438.296 359.227L436.943 356.665L433.858 356.268L433.359 354.213L436.445 352.542L441.749 351.639L449.64 354.213H449.889V353.446L444.988 346.798Z" fill="#D7E9F2"/>
<path d="M464.688 276.349H463.691V274.121L439.65 273.218L427.57 294.262L426.834 296.317L429.29 305.056L427.937 309.302L430.524 320.629L421.031 343.778L445.571 341.463L444.954 346.737L449.89 353.297V354.065H453.711L454.898 352.827L463.976 351.589C463.37 342.416 462.54 330.025 462.54 329.703C462.587 329.171 464.688 276.349 464.688 276.349Z" fill="#D7E9F2"/>
<path d="M550.256 342.379L549.188 342.553L547.622 340.324L511.121 341.389L508.902 337.923L475.201 339.718L476.72 351.218L477.385 350.908L480.944 347.306L481.68 352.58L488.717 352.072L487.969 349.237L486 347.702L488.717 346.539H491.553V348.73L489.571 350.525L493.891 349.881L496.478 350.017L498.459 351.255L499.195 350.995L500.382 349.571L501.248 349.188C501.248 349.188 503.336 350.351 503.467 350.735C503.597 351.119 502.47 352.926 502.47 352.926L504.843 358.2H514.087L516.461 356.132L520.519 352.419L523.972 351.181L528.042 352.419L527.425 355.117L528.944 355.464L532.397 355.984C532.397 355.984 533.584 358.299 533.584 358.212C533.584 358.125 535.316 359.45 535.316 359.45L538.022 360.985C538.204 362.321 538.288 363.671 538.271 365.02C538.105 365.528 539.09 365.528 539.09 365.528L540.407 363.906L542.709 365.528L544.608 370.331L543.54 377.536C543.54 377.536 543.124 384.74 543.207 385.26C543.29 385.78 545.996 387.996 545.996 387.996L546.91 387.402L547.23 385.508L549.698 383.973V389.37L547.811 391.252L546.625 392.031L546.293 394.941L548.512 399.657L550.648 400.895L552.38 399.781L555.833 398.84C556.577 399.737 557.263 400.684 557.886 401.675C557.393 402.516 556.842 403.319 556.237 404.076C555.403 404.22 554.578 404.418 553.768 404.67C553.628 405.521 553.604 406.388 553.697 407.245L554.682 408.483L557.305 407.963L559.856 405.487L564.602 415.614L567.308 416.034L571.592 416.901V418.783L570.061 420.887L568.874 422.348L569.29 423.895H571.592V425.95C571.592 425.95 570.607 426.977 570.607 427.188C570.879 427.79 571.209 428.363 571.592 428.896L577.584 428.215L581.037 424.7C581.037 424.7 580.788 422.645 581.037 422.385C581.286 422.125 581.037 420.837 581.037 420.837L580.634 416.468L582.936 413.893L585.238 411.751L584.906 404.547L581.286 392.626L568.791 371.445L569.207 370.207L571.829 371.16L571.995 369.7L564.84 362.706C565.564 362.37 566.252 361.955 566.893 361.468C566.976 361.208 560.556 348.433 560.556 348.433L560.236 341.401L559.049 336.685L551.502 336.252L550.256 342.379Z" fill="#D7E9F2"/>
<path d="M460.118 148.845L456.665 139.45L455.929 133.26L463.69 111.127L465.292 104.058L462.337 107.92L459.014 113.441C459.014 113.441 456.297 114.221 456.048 115.249C455.799 116.276 453.675 120.646 453.675 120.646L452.808 116.796L456.855 109.876L457.294 108.081L454.576 103.984L450.744 97.0392L438.545 89.3147L431.757 90.5526L428.198 86.8389V85.3039L425.243 86.5418L423.392 85.7743L421.54 81.2683L419.808 81.912L408.345 86.0219L405.972 96.3212L403.99 98.24L401.534 99.2798L400.347 100.431L401.819 107.512V109.183L399.445 115.1L405.735 121.884L408.321 122.429L411.407 127.182L415.726 128.42V130.091L418.313 130.611V137.407L420.283 140.688V149.068L423.498 152.609L460.284 151.371L460.118 148.845Z" fill="#D7E9F2"/>
<path d="M456.784 239.658L460 236.563L467.143 211.1L464.117 160.878L460.367 154.503L460.237 151.445L423.511 152.646L432.992 163.119V164.666L423.748 174.953L423.997 179.459L419.061 189.238H418.74L419.393 200.206L431.141 211.186L434.926 211.607L435.579 218.651L434.356 219.592L433.526 221.3L443.968 231.426L444.787 239.522L448.988 242.22L449.569 243.26L451.669 238.692L456.784 239.658Z" fill="#D7E9F2"/>
<path d="M507.749 326.262L510.218 315.281L504.628 305.378L497.888 271.955L463.69 274.183V276.411H464.686C464.686 276.411 462.586 329.233 462.586 329.753C462.586 330.074 463.417 342.466 464.022 351.639H464.188L468.258 350.401L469.979 339.086L472.447 351.044L469.492 353.755L470.228 354.263L476.719 351.354L475.2 339.854L508.9 338.059L509.067 334.89L507.749 326.262Z" fill="#D7E9F2"/>
<path d="M495.669 159.69L496.085 161.064L517.373 159.219L517.836 158.699L516.875 158.452C516.875 158.452 516.388 158.105 516.625 156.818C516.863 155.53 517.693 152.621 517.693 152.621L518.607 148.672L519.545 144.958L521.396 144.575L522.998 141.356L518.192 121.191C518.192 121.191 514.857 119.26 514.49 119.52L514.122 119.78L511.653 121.574L509.933 122.218L508.331 124.273L506.966 127.232L502.659 127.492L502.16 124.917L505.127 120.671L507.5 119.433L507.868 116.734L507.002 106.323L506.266 103.365L508.485 102.969L504.415 98.4752L499.692 97.7943L495.017 96.247L491.457 93.5483L487.707 95.5909L487.944 99.4531C486.729 100.067 485.573 100.801 484.491 101.644C484.373 102.028 484.254 108.836 484.254 108.836L482.522 109.876L481.774 105.494V103.439L479.187 106.918L476.22 112.575L472.898 114.506L473.634 119L473.017 128.012L473.515 132.641L477.455 138.162L476.968 154.379L471.213 160.061L471.699 161.026L495.669 159.69Z" fill="#D7E9F2"/>
<path d="M466.1 226.722L468.995 225.484L471.772 225.806L473.872 226.45L475.593 225.992L477.076 225.484H481.574L483.116 219.814L484.778 220.012L487.151 223.169L494.271 215.123V212.486L500.56 209.02L501.118 204.774L498.649 182.071L496.027 161.026L495.612 159.652L471.689 161.026L471.202 160.061L469.684 161.583L466.598 163.118L464.628 161.881L464.059 160.927L467.085 211.149L461.994 229.309L466.041 228.963L466.1 226.722Z" fill="#D7E9F2"/>
<path d="M528.801 273.217V271.893L530.189 268.811L511.535 270.395L497.889 271.893L504.629 305.316L510.218 315.22L507.75 326.2L509.067 334.692L508.901 337.861L511.12 341.327L547.621 340.262L549.187 342.491L550.255 342.317L551.56 336.128L559.107 336.561L558.965 335.967L557.778 334.073C557.778 334.073 557.612 331.325 557.612 331.077C557.612 330.83 558.929 329.443 558.929 329.443C558.805 327.328 558.805 325.207 558.929 323.093C559.178 322.932 560.816 322.152 560.816 322.152L561.397 317.955L563.367 316.717L564.435 314.662L564.269 312.942L562.133 312.174L559.831 313.288L558.431 312.174L558.68 306.591L557.612 304.536L528.801 273.217Z" fill="#D7E9F2"/>
<path d="M562.703 267.56L556.77 263.574L536.431 264.812L530.177 268.761L528.789 271.843V273.168L557.553 304.598L558.621 306.653L560.923 310.095H564.839L569.277 309.921V308.547L566.56 307.693C566.313 307.397 566.145 307.038 566.073 306.653C566.073 306.232 567.26 305.205 567.26 305.205L569.894 305.626L572.362 305.539L578.367 298.508L578.604 293.878L579.435 292.64L581.238 294.448L581.82 296.242L584.692 292.058L585.759 289.471V286.129L591.574 279.147L573.312 265.765L562.703 267.56Z" fill="#D7E9F2"/>
<path d="M522.998 263.574L532.859 254.439L544.951 244.412L545.817 240.698L522.262 243.607L462.586 246.825V249.574L444.537 250.812C444.442 251.95 444.383 252.953 444.383 252.953V257.162L444.086 262.299L439.648 270.408V273.23L463.69 274.134L497.889 271.905L511.535 270.408L512.722 270.309L516.222 265.902L522.998 263.574Z" fill="#D7E9F2"/>
<path d="M544.95 244.412L532.858 254.439L522.997 263.574L516.186 265.889L512.686 270.296L530.153 268.811L536.406 264.862L556.745 263.624L562.679 267.61L573.287 265.815L591.549 279.197L591.739 278.974L594.445 278.466V277.006L596.581 277.352L597.162 274.517L599.049 276.486L600.532 278.033C600.532 278.033 600.948 278.033 601.102 277.773C601.185 276.69 601.185 275.601 601.102 274.517L602.917 270.321L605.955 266.459V265.035H604.152L604.068 262.114C604.068 262.114 607.023 260.876 607.272 260.665C607.522 260.455 612.778 259.118 612.778 259.118L615.982 258.004H617.952V253.77H616.765L614.392 255.912L613.206 256.333L610.571 255.392C610.571 255.392 609.005 254.624 610.488 254.624C611.971 254.624 614.19 254.538 614.19 254.538C614.657 253.9 615.055 253.211 615.377 252.483C615.377 252.136 614.796 251.703 614.796 251.703L611.426 252.483L607.972 251.703L608.72 249.475L611.841 249.995L612.826 250.168L612.577 247.073L613.894 247.246L614.546 249.475C614.546 249.475 615.733 250.589 615.947 250.589C616.16 250.589 620.468 246.479 620.468 246.479L617.833 245.625C617.399 245.662 616.963 245.662 616.528 245.625C616.646 245.328 616.781 245.038 616.932 244.758H620.492L622.461 242.877L622.295 239.361L621.025 236.439L619.744 236.873L619.993 242.06H618.806L618.391 240.908V238.631L616.872 238.47L614.238 240.302L610.915 241.428C610.915 241.428 609.23 240.908 609.313 240.611C610.077 239.729 610.898 238.902 611.77 238.135L614.036 237.925L614.368 235.598L616.671 236.415H617.94L618.474 235.474L617.05 232.491L617.75 231.934L619.068 233.01L623.055 236.91L619.768 230.052L618.581 228.331V228.047L545.852 240.685L544.95 244.412Z" fill="#D7E9F2"/>
<path d="M525.966 234.768L535.577 228.046L536.444 221.411L532.492 218.428L531.756 215.853L532.492 211.743V210.976H528.802L525.716 207.757H516.093L512.723 205.95L501.023 203.375L501.177 204.799L500.619 209.045L494.33 212.511V215.147L487.21 223.194L484.837 220.037L483.176 219.839L481.633 225.509H477.029L475.545 226.016L473.825 226.474L471.724 225.831L468.948 225.509L466.052 226.747V228.938L462.006 229.284L459.953 236.588L456.749 239.683L451.623 238.717L449.523 243.285L450.994 245.847L450.08 247.741H444.99C444.73 248.747 444.59 249.782 444.574 250.824L462.623 249.586V246.838L519.938 243.743L525.622 237.232L525.966 234.768Z" fill="#D7E9F2"/>
<path d="M535.375 206.507V202.051L539.932 200.813L540.751 194.982H542.364L545.924 189.152L547.657 184.683L550.694 184.262L546.256 150.752L546.007 150.9C546.007 150.9 543.788 150.046 543.302 150.306C542.815 150.566 533.358 158.972 533.358 158.972C533.358 158.972 530.308 157.734 530.071 157.734C529.833 157.734 525.55 160.915 525.55 160.915L521.432 163.143L518.81 162.623L520.198 161.163L521.764 160.048L521.432 159.628L517.872 158.674L517.409 159.194L496.121 161.002L498.744 182.046L501.117 203.326L512.817 205.9L516.187 207.708H525.68L528.765 210.926H532.456L532.824 207.968L535.375 206.507Z" fill="#D7E9F2"/>
<path d="M601.043 204.415C600.865 204.415 596.914 203.375 596.914 203.375C596.38 202.434 595.98 201.416 595.727 200.355C595.857 199.847 596.914 197.396 596.914 197.396L596.795 195.725L595.751 194.116L591.123 192.506L588.963 188.013C588.963 188.013 585.7 187.691 585.51 187.691C585.32 187.691 580.336 193.608 580.336 193.608L578.794 193.992L578.366 197.074L571.887 205.739L570.594 206.457L566.346 204.464L565.159 205.034V210.122L558.372 214.491L556.9 221.461H551.465L549.555 223.491L548.368 221.461H546.268L543.373 227.13H541.889L536.407 221.461L535.541 228.096L525.929 234.818L525.549 237.294L519.865 243.805L522.239 243.681L545.853 240.685L618.617 228.046L619.127 222.884L617.525 223.231L617.051 224.556L612.826 224.172L612.613 225.249L609.931 224.06L607.047 221.795C605.849 221.378 604.629 221.035 603.393 220.768C602.485 220.989 601.565 221.159 600.64 221.275L600.889 219.951L604.01 218.96L607.249 221.015L611.569 222.563C611.569 222.563 613.254 223.169 613.301 222.736C613.348 222.303 611.853 220.421 611.853 220.421L610.085 218.96V215.791L607.866 215.11C607.866 215.11 607.012 214.628 607.012 214.38C607.012 214.132 608.448 213.39 608.448 213.39L609.017 212.659L608.08 211.805L608.317 207.126L604.496 205.12C604.496 205.12 601.233 204.415 601.043 204.415Z" fill="#D7E9F2"/>
<path d="M584.893 184.918L575.899 184.992L570.903 187.109L566.892 195.279H565.29L564.555 184.41L551.502 186.589L550.683 184.262L547.645 184.683L545.853 189.152L542.293 194.982H540.751L539.932 200.813L535.375 202.05V206.507L532.859 207.968L532.492 210.926V211.694L531.756 215.804L532.492 218.378L536.443 221.362L541.925 227.031H543.409L546.304 221.362H548.404L549.591 223.392L551.502 221.362H556.936L558.408 214.392L565.195 210.023V204.935L566.382 204.365L570.63 206.358L571.924 205.64L578.403 196.975L578.83 193.893L580.372 193.509C580.372 193.509 585.368 187.592 585.546 187.592H586.187L585.914 186.255L584.893 184.918Z" fill="#D7E9F2"/>
<path d="M624.931 198.572L626.367 196.183L624.231 194.462L625.133 193.001L624.563 190.687L621.11 187.517L620.695 182.888L617.906 179.88L616.174 177.404L614.939 174.569L613.788 174.222L611.819 176.203H611.795L619.093 198.572H624.931Z" fill="#D7E9F2"/>
<path d="M619.092 198.584L611.795 176.203L564.555 184.448L565.29 195.316H566.892L570.903 187.146L575.899 185.029L584.894 184.955L585.879 186.441L586.151 187.778L588.964 188.05L591.123 192.543L595.751 194.153L596.796 195.762L596.914 197.433C596.914 197.433 595.811 199.909 595.728 200.392C595.98 201.453 596.38 202.471 596.914 203.412C596.914 203.412 600.866 204.452 601.044 204.452C601.222 204.452 604.497 205.096 604.497 205.096L608.318 207.101L610.466 207.708L611 206.074L609.813 204.489L607.44 199.822L607.024 198.584L607.523 195.403L607.024 192.494L608.092 191.64L608.009 190.773L606.455 189.746L606.123 189.238L605.873 187.258L610.228 182.455L610.561 183.234L609.825 185.463C609.825 185.463 609.077 186.403 609.243 187.084C609.593 187.801 610.068 188.444 610.644 188.978L611.213 192.321L611.059 193.955L609.576 194.982L610.062 196.69L611.059 196.95L612.697 198.671L611.961 200.119L613.147 204.242L613.883 204.836L614.951 203.128L617.17 203.387L617.669 206.47L618.072 208.871H619.259L622.225 206.816L623.044 203.635L624.444 202.781V199.302L624.895 198.535L619.092 198.584Z" fill="#D7E9F2"/>
<path d="M617.822 167.711V164.455L613.622 161.026V153.302L615.924 150.987C615.924 150.987 615.829 149.242 615.734 147.273L615.224 147.063L609.931 144.476V142.359L605.363 138.893L554.444 148.92L553.53 145.85L553.21 146.221L546.221 150.702L550.659 184.212L551.477 186.54L564.53 184.361L611.794 176.154L613.598 174.346V172.972L617.822 167.711Z" fill="#D7E9F2"/>
<path d="M624.17 159.566C623.569 159.355 623.068 158.912 622.77 158.328C622.77 158.068 623.268 155.753 623.268 155.753L624.953 155.481V150.9L615.757 147.187C615.852 149.18 615.947 150.9 615.947 150.9L613.645 153.215V160.94L617.845 164.369V167.624L613.645 172.935V174.309L613.811 174.136L614.997 174.482L616.184 177.317H618.237L619.637 178.555L622.271 181.563L623.173 180.882L623.577 177.874L625.796 172.923L626.982 169.073V159.888C626.982 159.888 624.562 159.566 624.17 159.566Z" fill="#D7E9F2"/>
<path d="M628.608 146.654L627.6 138.942L626.413 133.495V119.878L623.696 108.019L619.139 103.588V94.5634C619.139 94.5634 616.528 89.7975 613.858 84.6602L596.652 89.4013L586.625 107.499L587.812 108.267L589.295 108.354L588.88 110.582L590.363 114.444C590.363 114.444 590.529 115.051 590.363 115.298C590.142 115.773 589.948 116.261 589.781 116.759L583.54 121.711L578.2 122.948L573.762 122.552L571.128 122.131L559.261 126.328L559.415 129.67L562.548 132.592L562.465 135.414L553.494 145.85L554.408 148.92L605.326 138.893L609.931 142.359V144.426L615.223 146.989L624.93 150.851V155.468L625.381 155.394L627.018 158.142L630.234 157.709L633.189 156.681C633.501 155.866 633.899 155.09 634.375 154.366L639.881 152.398L647.357 147.335L650.407 144.934L649.659 144.166L646.621 144.76L643.417 147.162L642.682 147.508L639.715 148.276L636.76 149.514L634.043 152.435L630.673 153.673L628.952 153.5L626.971 152.98V151.742L628.157 151.16L627.493 149.922L628.608 146.654Z" fill="#D7E9F2"/>
<path d="M626.365 133.112V133.495L627.599 138.942L628.608 146.654L627.433 149.935L628.098 151.173L629.652 150.393L637.128 144.216L649.362 138.472L646.609 127.269L626.365 133.112Z" fill="#D7E9F2"/>
<path d="M657.147 130.066H654.56L650.751 126.08L646.609 127.269L649.362 138.472L651.926 137.271L653.243 132.976L655.129 134.956L657.265 134.61L658.215 131.899L657.147 130.066Z" fill="#D7E9F2"/>
<path d="M649.873 114.506L626.365 120.262V133.112L650.751 126.08L654.56 130.066H657.147L658.215 131.899V131.775L659.935 129.547L662.736 131.688L668.076 127.578H669.713L670.295 126.551L670.045 123.889L669.642 122.342L667.174 119.866C667.174 119.866 666.272 118.913 665.987 118.913C665.514 119.014 665.092 119.292 664.8 119.693C664.563 119.975 664.367 120.292 664.219 120.634L665.536 121.067H666.521L668.42 123.035L668.74 124.83L666.035 126.811L664.551 127.665L661.798 126.266C661.509 125.488 661.287 124.684 661.134 123.865C661.134 123.357 660.718 121.203 660.718 121.203L658.499 120.349L654.144 120.869L654.394 118.975L657.111 116.066L657.598 113.144H656.126L655.295 110.582H651.605L649.873 114.506Z" fill="#D7E9F2"/>
<path d="M681.852 59.147L675.112 58.3795L667.304 35.6145L661.952 34.7604L656.945 32.2845H655.758L654.275 34.7604H650.822L648.852 33.0768L647.665 34.03L642.812 53.3165L645.446 57.8596L645.529 60.8677L644.544 62.9226L644.711 64.1605L644.295 65.8812L643.393 66.9087L642.658 69.5578L643.061 72.4793L640.344 73.4324C644.651 85.6134 653.575 108.935 653.575 108.935L655.129 109.257L657.194 106.881V103.402L659.247 102.362L659.899 101.681L659.769 99.5398L660.683 96.6184L662.154 96.705L659.769 94.3901C659.769 94.3901 659.199 94.3901 659.769 93.9692C660.418 93.5961 661.107 93.3051 661.822 93.1027L663.222 93.9692C663.222 93.9692 664.705 95.6776 664.955 95.5909C665.204 95.5042 665.275 93.4493 665.275 93.4493L664.088 92.4219L664.421 90.6145L664.919 88.3863C664.919 88.3863 667.387 87.6188 667.625 88.213C667.862 88.8072 668.206 89.6737 668.206 89.6737L669.191 89.5004L668.609 77.6661L670.342 79.5601L671.078 80.08L671.979 79.1268C671.979 79.1268 672.893 78.2726 673.463 78.3593C674.032 78.4459 675.029 79.5972 675.029 79.5972L676.346 80.1171L676.667 77.2823C676.667 77.2823 677.984 77.7032 678.067 77.7032C678.339 78.0285 678.585 78.3763 678.803 78.743L679.716 77.2823L682.018 76.5891V75.3512L680.452 73.9771L681.52 73.5439L682.018 72.9497L684.237 71.9965L686.456 72.3431L687.358 70.6348L687.691 69.1988L681.852 59.147Z" fill="#D7E9F2"/>
<path d="M633.843 105.804L635.16 91.6048L637.379 89.4509L637.865 85.5144L636.394 84.1403V78.4459L613.848 84.6354C616.518 89.7604 619.128 94.5387 619.128 94.5387V103.625L623.685 108.057L626.402 119.916V120.238L635.361 118.046L635.646 111.436L633.843 105.804Z" fill="#D7E9F2"/>
<path d="M655.023 109.48L655.178 109.294L653.576 108.935C653.576 108.935 644.652 85.5763 640.25 73.3582L636.891 74.5961L636.393 78.4583V84.1155L637.864 85.4896L637.378 89.4261L635.159 91.6048L633.842 105.841L635.61 111.411L635.325 118.022L649.873 114.457L651.606 110.47H655.296L655.023 109.48Z" fill="#D7E9F2"/>
<path d="M114.511 274.505L115.698 270.655L124.206 258.041L120.753 247.246L69.3955 166.461L73.2164 159.689L70.7482 158.662L83.196 117.972L34.544 101.879H32.764L31.7791 102.993L32.0401 105.11L33.4641 107.698L29.1922 115.236V121.067L23.0336 127.256L22.7013 128.804L26.107 138.472L24.9203 149.353L20.6484 152.361V153.302L23.6032 153.822L29.6075 165.396L27.1393 170.026L28.9549 172.935H31.2451L34.0456 171.487L36.0154 169.853L44.9745 171.4L37.2495 172.427L36.0628 178.679H34.6152L33.8794 176.364C33.8794 176.364 32.6928 177.602 32.4792 177.602C32.2656 177.602 31.4112 179.063 31.4112 179.063L30.2246 193.385L31.874 194.239H32.5267L33.1912 200.59L36.8104 210.617L40.3703 216.113L42.269 218.428L41.284 231.624C41.8555 232.723 42.256 233.91 42.4707 235.14C42.5962 236.209 42.8763 237.252 43.3013 238.234L54.5862 241.626L68.9683 251.827L68.1495 255.082L66.6662 258.09L75.7914 258.598L74.8896 260.838L74.4743 263.153L80.6448 270.581L77.429 276.77L79.1615 277.798L79.4937 279.518L91.6568 281.573L112.53 283.975L116.73 283.888L114.511 274.505Z" stroke="#49626B" stroke-width="0.5" stroke-miterlimit="10"/>
<path d="M85.0943 56.8321L115.828 57.0054L135.396 63.3559L150.169 17.3306H150.027L91.5021 0.334229L90.185 1.2379L91.0038 3.20616L90.185 11.7353L91.0038 17.7268L91.1699 18.7666L88.3813 19.4474L84.0857 26.4787C84.0857 26.4787 82.2938 22.5298 82.7922 22.0223C83.2906 21.5147 85.0943 11.7353 85.0943 11.7353L77.6897 10.6955L74.9011 8.66531L67.7813 1.2379H66.1793L65.7759 3.20616V14.4339L62.5719 25.0675L64.3756 27.4691L64.7079 30.2172L62.1566 33.9928V28.707L61.4209 28.5337L59.7715 31.1951L60.2699 35.6145L72.0176 41.0612V44.6635L72.599 49.2933L85.0943 56.8321Z" stroke="#49626B" stroke-width="0.5" stroke-miterlimit="10"/>
<path d="M133.745 78.6192L140.319 75.0169L135.181 63.2816L115.827 57.0055L85.0928 56.8321L72.5975 49.2933L72.0161 44.6636L59.77 37.7065L60.1853 45.4311L52.6977 54.344L48.2596 67.2924L37.9834 86.1581L32.7266 87.2722V88.6463L34.6133 90.8745V101.941H34.5065L83.1942 117.972L119.944 127.665L133.745 78.6192Z" stroke="#49626B" stroke-width="0.5" stroke-miterlimit="10"/>
<path d="M196.139 103.984L192.318 103.08C192.318 103.08 190.348 101.842 189.945 101.966C189.542 102.09 174.412 99.4902 174.412 99.4902L168.989 90.0945L166.034 75.314L165.287 74.7941L163.068 76.849H162.083L162.569 71.6746L166.639 60.3477L163.305 53.923L162.201 45.5548L155.082 33.7204C155.082 33.7204 156.85 25.4636 158.155 19.794L150.169 17.3182L135.395 63.3558L135.182 63.2816L140.332 75.0169L133.746 78.6192L119.945 127.665L187.999 144.476L196.139 103.984Z" stroke="#49626B" stroke-width="0.5" stroke-miterlimit="10"/>
<path d="M120.895 237.665L124.253 226.214L129.07 226.796L132.393 230.906L132.832 230.782L152.625 135.736L119.945 127.665L83.1951 117.972L70.7473 158.625L73.2155 159.652L69.3945 166.461L120.8 247.246L122.9 243.57L120.895 237.665Z" stroke="#49626B" stroke-width="0.5" stroke-miterlimit="10"/>
<path d="M135.847 216.299L132.821 230.782L132.394 230.906L129.071 226.796L124.253 226.214L120.895 237.677L122.901 243.582L120.8 247.296L124.253 258.09L115.745 270.705L114.559 274.554L116.79 283.95L112.589 284.037L110.785 287.032L111.236 288.84C111.236 288.84 159.568 316.235 159.319 316.618C159.069 317.002 175.516 319.181 186.493 320.691L198.905 228.901L135.847 216.299Z" stroke="#49626B" stroke-width="0.5" stroke-miterlimit="10"/>
<path d="M274.315 106.46L282.206 42.8809L160.873 20.6482L158.155 19.8064C156.85 25.476 155.082 33.7328 155.082 33.7328L162.202 45.5672L163.305 53.9354L166.64 60.3601L162.57 71.6745L162.071 76.8118H163.056L165.275 74.7569L166.023 75.2768L168.978 90.0574L174.436 99.4531C174.436 99.4531 189.601 102.115 189.969 101.929C190.337 101.743 192.342 103.043 192.342 103.043L196.163 103.947L197.694 94.8976L274.315 106.46Z" stroke="#49626B" stroke-width="0.5" stroke-miterlimit="10"/>
<path d="M185.21 159.566L187.998 144.476L152.625 135.736L135.846 216.299L198.856 228.851L208.053 164.195L185.21 159.566Z" stroke="#49626B" stroke-width="0.5" stroke-miterlimit="10"/>
<path d="M356.668 73.3458L352.36 51.0883L353.761 47.5726H353.713L282.206 42.8191L276.285 90.4783L358.4 96.3584L356.668 73.3458Z" stroke="#49626B" stroke-width="0.5" stroke-miterlimit="10"/>
<path d="M274.315 106.398L197.671 94.91L196.14 103.959L188 144.476L185.211 159.566L208.054 164.195L266.911 172.601L274.315 106.398Z" stroke="#49626B" stroke-width="0.5" stroke-miterlimit="10"/>
<path d="M286.146 239.522L290.751 174.309L266.911 172.601L208.054 164.195L198.857 228.851L272.085 239.522H286.146Z" stroke="#49626B" stroke-width="0.5" stroke-miterlimit="10"/>
<path d="M266.09 320.617L272.593 239.497H272.095L198.856 228.826L186.443 320.617L196.138 321.954L197.669 315.641L211.553 318.215L220.797 319.243V315.43L266.09 320.617Z" stroke="#49626B" stroke-width="0.5" stroke-miterlimit="10"/>
<path d="M392.776 347.182C393.245 346.561 393.783 346 394.378 345.511L395.244 342.936L392.278 340.758L390.806 337.799V331.238L386.238 322.87V301.268L383.283 300.365L380.696 301.268L372.603 295.475L357.177 297.951L355.813 295.859L350.259 294.188V296.886H348.657L347.471 293.68L345.311 295.475L337.788 296.886L333.468 290.078L332.365 292.058H329.647L318.018 284.544L309.142 282.489L310.329 249.809L272.012 246.813L266.079 320.642L220.785 315.455V319.268L238.786 342.553L243.474 359.017L261.273 371.235L262.258 370.207C262.258 370.207 265.094 362.879 265.225 362.495C265.355 362.111 270.648 357.345 270.648 357.345L289.752 363.77L298.261 374.317L305.914 392.205L310.471 394.903L311.658 399.149L313.011 408.793L324.723 422.41H335.58L341.252 425.888H342.439L343.044 420.738L336.826 402.318H340.647L341.751 394.73L338.547 394.086L338.179 392.923L344.219 392.415L353.831 384.988L373.066 374.305L377.267 374.565V372.51L375.665 371.99L374.063 365.305C374.063 365.305 378.81 362.829 378.81 363.25V369.811L390.771 364.278H391.079L392.005 359.041C392.005 359.041 392.669 347.566 392.776 347.182Z" stroke="#49626B" stroke-width="0.5" stroke-miterlimit="10"/>
<path d="M380.02 243.595L286.145 239.522H272.593L272 246.813L310.317 249.809L309.082 282.489L317.958 284.544L329.671 292.058H332.388L333.492 290.078L337.811 296.886L345.322 295.475L347.423 293.68L348.657 296.886H350.259V294.188L355.812 295.859L357.165 297.914L372.579 295.475L380.72 301.268L382.559 300.625L380.02 252.693V243.595Z" stroke="#49626B" stroke-width="0.5" stroke-miterlimit="10"/>
<path d="M339.082 150.814L347.958 147.905L359.302 153.389L358.4 141.208L355.03 137.444H359.302L358.4 96.3583L276.285 90.4783L274.315 106.398L270.471 140.725L319.847 143.448L339.082 150.814Z" stroke="#49626B" stroke-width="0.5" stroke-miterlimit="10"/>
<path d="M418.325 130.71L415.738 130.19V128.519L411.418 127.232L408.333 122.478L405.746 121.933L399.457 115.15L401.795 109.233V107.561L400.323 100.481L401.557 99.317L404.014 98.2895L405.995 96.3584L408.333 86.0714V80.6742L410.801 77.9755L414.005 76.9481L415.358 71.7984L434.724 62.1551L433.608 60.9915L432.125 59.7041L421.161 60.0878L414.741 61.2515L411.418 61.3753L406.612 59.8403L402.044 58.9366L401.178 54.4306L399.089 54.1831L398.104 56.8817L393.168 55.5943L381.337 50.8283L377.718 48.9467L373.932 46.5699L353.76 47.5726L352.359 51.0883L356.667 73.3458L358.399 96.3584L359.301 137.444H418.325V130.71Z" stroke="#49626B" stroke-width="0.5" stroke-miterlimit="10"/>
<path d="M431.757 90.4783L438.545 89.2404L450.744 96.9649L454.576 103.984L457.234 108.106L457.899 105.395L463.203 97.4229L466.656 95.1081L467.641 99.0941L469.125 99.2179L469.611 95.7518L470.109 93.9444L478.119 89.6984L484.776 90.3421L487.743 92.657L488.229 91.2458L487.98 89.4385L498.957 89.3147L499.455 87.7673L495.753 85.5886L491.006 81.3426L485.073 81.8501L483.72 80.1047L483.352 76.4529L473.61 79.4114L467.44 82.63L467.19 84.5611L466.953 86.3561L464.117 85.5886L462.266 84.0412L458.065 84.4249L451.289 79.4733L447.338 81.2807L446.602 79.4733L446.483 76.391L450.922 73.8533L453.758 70.8947L455.36 69.7434L454.481 67.1686C453.645 67.2337 452.833 67.4961 452.108 67.9361C451.242 68.5798 448.774 68.2579 448.157 69.174C447.54 70.09 442.366 71.7241 442.366 71.7241C441.756 72.7117 441.299 73.7938 441.013 74.9302V77.1213L431.888 80.835L428.186 83.1499V86.7522L431.757 90.4783Z" stroke="#49626B" stroke-width="0.5" stroke-miterlimit="10"/>
<path d="M371.144 193.521L368.51 185.97L364.891 182.294L363.906 169.853L360.12 158.192L359.302 153.389L347.957 147.905L339.081 150.814L319.846 143.448L270.47 140.725L266.91 172.601L290.75 174.309L289.611 190.402L371.144 193.521Z" stroke="#49626B" stroke-width="0.5" stroke-miterlimit="10"/>
<path d="M374.753 205.356L377.221 198.151L371.145 193.521L289.611 190.402L286.146 239.522L380.021 243.595L378.704 209.131L374.753 205.356Z" stroke="#49626B" stroke-width="0.5" stroke-miterlimit="10"/>
<path d="M416.841 189.238H419.06L423.997 179.459L423.747 174.953L432.991 164.666V163.118L420.294 149.105V140.725L418.324 137.444H359.301H355.029L358.399 141.208L359.301 153.389L360.12 158.192L363.905 169.853L364.89 182.294L368.225 185.685L413.886 186.02L416.841 189.238Z" stroke="#49626B" stroke-width="0.5" stroke-miterlimit="10"/>
<path d="M437.714 257.15H444.383V252.941C444.383 252.941 444.703 247.717 444.953 247.717H450.126L451.04 245.823L448.975 242.22L444.786 239.522L443.968 231.426L433.525 221.3L434.344 219.592L435.531 218.638L434.878 211.607L431.093 211.186L419.345 200.206L418.692 189.238H416.794L413.839 186.02L368.225 185.685L368.509 185.97L371.144 193.521L377.219 198.151L374.751 205.356L378.703 209.131L380.02 243.595V252.681V253.126L437.121 250.799L437.714 257.15Z" stroke="#49626B" stroke-width="0.5" stroke-miterlimit="10"/>
<path d="M429.29 305.118L426.834 296.379L427.57 294.311L439.65 273.23V270.395L444.088 262.287L444.384 257.15H437.727L437.146 250.799L380.045 253.126L382.561 300.625L383.308 300.365L386.263 301.268V302.556V309.364H427.938L429.29 305.118Z" stroke="#49626B" stroke-width="0.5" stroke-miterlimit="10"/>
<path d="M444.988 346.798L445.605 341.525L421.066 343.84L430.559 320.691L427.972 309.364H386.262V322.87L390.83 331.238V337.799L392.302 340.757L395.268 342.936L394.402 345.511C393.807 346 393.269 346.561 392.8 347.182C392.67 347.566 392.064 359.017 392.064 359.017L391.139 364.253L398.104 363.523L399.208 358.249L400.81 363.263L408.832 366.085L417.34 365.577L414.005 361.591L420.911 360.353L422.015 366.011L426.951 365.491L425.231 370.257L427.936 369.997L429.669 371.928L434.961 372.955L437.429 368.969L439.031 369.873L440.147 373.475L442.734 372.312V366.914L445.819 367.558L449.142 373.475L453.71 370.133L450.376 367.942L448.157 363.176L452.346 362.408L451.74 358.039L448.904 361.257L444.834 361.121L445.202 357.902L448.287 356.665L444.454 356.268L438.296 359.227L436.943 356.665L433.858 356.268L433.359 354.213L436.445 352.542L441.749 351.639L449.64 354.213H449.889V353.446L444.988 346.798Z" stroke="#49626B" stroke-width="0.5" stroke-miterlimit="10"/>
<path d="M464.688 276.349H463.691V274.121L439.65 273.218L427.57 294.262L426.834 296.317L429.29 305.056L427.937 309.302L430.524 320.629L421.031 343.778L445.571 341.463L444.954 346.737L449.89 353.297V354.065H453.711L454.898 352.827L463.976 351.589C463.37 342.416 462.54 330.025 462.54 329.703C462.587 329.171 464.688 276.349 464.688 276.349Z" stroke="#49626B" stroke-width="0.5" stroke-miterlimit="10"/>
<path d="M550.256 342.379L549.188 342.553L547.622 340.324L511.121 341.389L508.902 337.923L475.201 339.718L476.72 351.218L477.385 350.908L480.944 347.306L481.68 352.58L488.717 352.072L487.969 349.237L486 347.702L488.717 346.539H491.553V348.73L489.571 350.525L493.891 349.881L496.478 350.017L498.459 351.255L499.195 350.995L500.382 349.571L501.248 349.188C501.248 349.188 503.336 350.351 503.467 350.735C503.597 351.119 502.47 352.926 502.47 352.926L504.843 358.2H514.087L516.461 356.132L520.519 352.419L523.972 351.181L528.042 352.419L527.425 355.117L528.944 355.464L532.397 355.984C532.397 355.984 533.584 358.299 533.584 358.212C533.584 358.125 535.316 359.45 535.316 359.45L538.022 360.985C538.204 362.321 538.288 363.671 538.271 365.02C538.105 365.528 539.09 365.528 539.09 365.528L540.407 363.906L542.709 365.528L544.608 370.331L543.54 377.536C543.54 377.536 543.124 384.74 543.207 385.26C543.29 385.78 545.996 387.996 545.996 387.996L546.91 387.402L547.23 385.508L549.698 383.973V389.37L547.811 391.252L546.625 392.031L546.293 394.941L548.512 399.657L550.648 400.895L552.38 399.781L555.833 398.84C556.577 399.737 557.263 400.684 557.886 401.675C557.393 402.516 556.842 403.319 556.237 404.076C555.403 404.22 554.578 404.418 553.768 404.67C553.628 405.521 553.604 406.388 553.697 407.245L554.682 408.483L557.305 407.963L559.856 405.487L564.602 415.614L567.308 416.034L571.592 416.901V418.783L570.061 420.887L568.874 422.348L569.29 423.895H571.592V425.95C571.592 425.95 570.607 426.977 570.607 427.188C570.879 427.79 571.209 428.363 571.592 428.896L577.584 428.215L581.037 424.7C581.037 424.7 580.788 422.645 581.037 422.385C581.286 422.125 581.037 420.837 581.037 420.837L580.634 416.468L582.936 413.893L585.238 411.751L584.906 404.547L581.286 392.626L568.791 371.445L569.207 370.207L571.829 371.16L571.995 369.7L564.84 362.706C565.564 362.37 566.252 361.955 566.893 361.468C566.976 361.208 560.556 348.433 560.556 348.433L560.236 341.401L559.049 336.685L551.502 336.252L550.256 342.379Z" stroke="#49626B" stroke-width="0.5" stroke-miterlimit="10"/>
<path d="M460.118 148.845L456.665 139.45L455.929 133.26L463.69 111.127L465.292 104.058L462.337 107.92L459.014 113.441C459.014 113.441 456.297 114.221 456.048 115.249C455.799 116.276 453.675 120.646 453.675 120.646L452.808 116.796L456.855 109.876L457.294 108.081L454.576 103.984L450.744 97.0392L438.545 89.3147L431.757 90.5526L428.198 86.8389V85.3039L425.243 86.5418L423.392 85.7743L421.54 81.2683L419.808 81.912L408.345 86.0219L405.972 96.3212L403.99 98.24L401.534 99.2798L400.347 100.431L401.819 107.512V109.183L399.445 115.1L405.735 121.884L408.321 122.429L411.407 127.182L415.726 128.42V130.091L418.313 130.611V137.407L420.283 140.688V149.068L423.498 152.609L460.284 151.371L460.118 148.845Z" stroke="#49626B" stroke-width="0.5" stroke-miterlimit="10"/>
<path d="M456.784 239.658L460 236.563L467.143 211.1L464.117 160.878L460.367 154.503L460.237 151.445L423.511 152.646L432.992 163.119V164.666L423.748 174.953L423.997 179.459L419.061 189.238H418.74L419.393 200.206L431.141 211.186L434.926 211.607L435.579 218.651L434.356 219.592L433.526 221.3L443.968 231.426L444.787 239.522L448.988 242.22L449.569 243.26L451.669 238.692L456.784 239.658Z" stroke="#49626B" stroke-width="0.5" stroke-miterlimit="10"/>
<path d="M507.749 326.262L510.218 315.281L504.628 305.378L497.888 271.955L463.69 274.183V276.411H464.686C464.686 276.411 462.586 329.233 462.586 329.753C462.586 330.074 463.417 342.466 464.022 351.639H464.188L468.258 350.401L469.979 339.086L472.447 351.044L469.492 353.755L470.228 354.263L476.719 351.354L475.2 339.854L508.9 338.059L509.067 334.89L507.749 326.262Z" stroke="#49626B" stroke-width="0.5" stroke-miterlimit="10"/>
<path d="M495.669 159.69L496.085 161.064L517.373 159.219L517.836 158.699L516.875 158.452C516.875 158.452 516.388 158.105 516.625 156.818C516.863 155.53 517.693 152.621 517.693 152.621L518.607 148.672L519.545 144.958L521.396 144.575L522.998 141.356L518.192 121.191C518.192 121.191 514.857 119.26 514.49 119.52L514.122 119.78L511.653 121.574L509.933 122.218L508.331 124.273L506.966 127.232L502.659 127.492L502.16 124.917L505.127 120.671L507.5 119.433L507.868 116.734L507.002 106.323L506.266 103.365L508.485 102.969L504.415 98.4752L499.692 97.7943L495.017 96.247L491.457 93.5483L487.707 95.5909L487.944 99.4531C486.729 100.067 485.573 100.801 484.491 101.644C484.373 102.028 484.254 108.836 484.254 108.836L482.522 109.876L481.774 105.494V103.439L479.187 106.918L476.22 112.575L472.898 114.506L473.634 119L473.017 128.012L473.515 132.641L477.455 138.162L476.968 154.379L471.213 160.061L471.699 161.026L495.669 159.69Z" stroke="#49626B" stroke-width="0.5" stroke-miterlimit="10"/>
<path d="M466.1 226.722L468.995 225.484L471.772 225.806L473.872 226.45L475.593 225.992L477.076 225.484H481.574L483.116 219.814L484.778 220.012L487.151 223.169L494.271 215.123V212.486L500.56 209.02L501.118 204.774L498.649 182.071L496.027 161.026L495.612 159.652L471.689 161.026L471.202 160.061L469.684 161.583L466.598 163.118L464.628 161.881L464.059 160.927L467.085 211.149L461.994 229.309L466.041 228.963L466.1 226.722Z" stroke="#49626B" stroke-width="0.5" stroke-miterlimit="10"/>
<path d="M528.801 273.217V271.893L530.189 268.811L511.535 270.395L497.889 271.893L504.629 305.316L510.218 315.22L507.75 326.2L509.067 334.692L508.901 337.861L511.12 341.327L547.621 340.262L549.187 342.491L550.255 342.317L551.56 336.128L559.107 336.561L558.965 335.967L557.778 334.073C557.778 334.073 557.612 331.325 557.612 331.077C557.612 330.83 558.929 329.443 558.929 329.443C558.805 327.328 558.805 325.207 558.929 323.093C559.178 322.932 560.816 322.152 560.816 322.152L561.397 317.955L563.367 316.717L564.435 314.662L564.269 312.942L562.133 312.174L559.831 313.288L558.431 312.174L558.68 306.591L557.612 304.536L528.801 273.217Z" stroke="#49626B" stroke-width="0.5" stroke-miterlimit="10"/>
<path d="M562.703 267.56L556.77 263.574L536.431 264.812L530.177 268.761L528.789 271.843V273.168L557.553 304.598L558.621 306.653L560.923 310.095H564.839L569.277 309.921V308.547L566.56 307.693C566.313 307.397 566.145 307.038 566.073 306.653C566.073 306.232 567.26 305.205 567.26 305.205L569.894 305.626L572.362 305.539L578.367 298.508L578.604 293.878L579.435 292.64L581.238 294.448L581.82 296.242L584.692 292.058L585.759 289.471V286.129L591.574 279.147L573.312 265.765L562.703 267.56Z" stroke="#49626B" stroke-width="0.5" stroke-miterlimit="10"/>
<path d="M522.998 263.574L532.859 254.439L544.951 244.412L545.817 240.698L522.262 243.607L462.586 246.825V249.574L444.537 250.812C444.442 251.95 444.383 252.953 444.383 252.953V257.162L444.086 262.299L439.648 270.408V273.23L463.69 274.134L497.889 271.905L511.535 270.408L512.722 270.309L516.222 265.902L522.998 263.574Z" stroke="#49626B" stroke-width="0.5" stroke-miterlimit="10"/>
<path d="M544.95 244.412L532.858 254.439L522.997 263.574L516.186 265.889L512.686 270.296L530.153 268.811L536.406 264.862L556.745 263.624L562.679 267.61L573.287 265.815L591.549 279.197L591.739 278.974L594.445 278.466V277.006L596.581 277.352L597.162 274.517L599.049 276.486L600.532 278.033C600.532 278.033 600.948 278.033 601.102 277.773C601.185 276.69 601.185 275.601 601.102 274.517L602.917 270.321L605.955 266.459V265.035H604.152L604.068 262.114C604.068 262.114 607.023 260.876 607.272 260.665C607.522 260.455 612.778 259.118 612.778 259.118L615.982 258.004H617.952V253.77H616.765L614.392 255.912L613.206 256.333L610.571 255.392C610.571 255.392 609.005 254.624 610.488 254.624C611.971 254.624 614.19 254.538 614.19 254.538C614.657 253.9 615.055 253.211 615.377 252.483C615.377 252.136 614.796 251.703 614.796 251.703L611.426 252.483L607.972 251.703L608.72 249.475L611.841 249.995L612.826 250.168L612.577 247.073L613.894 247.246L614.546 249.475C614.546 249.475 615.733 250.589 615.947 250.589C616.16 250.589 620.468 246.479 620.468 246.479L617.833 245.625C617.399 245.662 616.963 245.662 616.528 245.625C616.646 245.328 616.781 245.038 616.932 244.758H620.492L622.461 242.877L622.295 239.361L621.025 236.439L619.744 236.873L619.993 242.06H618.806L618.391 240.908V238.631L616.872 238.47L614.238 240.302L610.915 241.428C610.915 241.428 609.23 240.908 609.313 240.611C610.077 239.729 610.898 238.902 611.77 238.135L614.036 237.925L614.368 235.598L616.671 236.415H617.94L618.474 235.474L617.05 232.491L617.75 231.934L619.068 233.01L623.055 236.91L619.768 230.052L618.581 228.331V228.047L545.852 240.685L544.95 244.412Z" stroke="#49626B" stroke-width="0.5" stroke-miterlimit="10"/>
<path d="M525.966 234.768L535.577 228.046L536.444 221.411L532.492 218.428L531.756 215.853L532.492 211.743V210.976H528.802L525.716 207.757H516.093L512.723 205.95L501.023 203.375L501.177 204.799L500.619 209.045L494.33 212.511V215.147L487.21 223.194L484.837 220.037L483.176 219.839L481.633 225.509H477.029L475.545 226.016L473.825 226.474L471.724 225.831L468.948 225.509L466.052 226.747V228.938L462.006 229.284L459.953 236.588L456.749 239.683L451.623 238.717L449.523 243.285L450.994 245.847L450.08 247.741H444.99C444.73 248.747 444.59 249.782 444.574 250.824L462.623 249.586V246.838L519.938 243.743L525.622 237.232L525.966 234.768Z" stroke="#49626B" stroke-width="0.5" stroke-miterlimit="10"/>
<path d="M535.375 206.507V202.051L539.932 200.813L540.751 194.982H542.364L545.924 189.152L547.657 184.683L550.694 184.262L546.256 150.752L546.007 150.9C546.007 150.9 543.788 150.046 543.302 150.306C542.815 150.566 533.358 158.972 533.358 158.972C533.358 158.972 530.308 157.734 530.071 157.734C529.833 157.734 525.55 160.915 525.55 160.915L521.432 163.143L518.81 162.623L520.198 161.163L521.764 160.048L521.432 159.628L517.872 158.674L517.409 159.194L496.121 161.002L498.744 182.046L501.117 203.326L512.817 205.9L516.187 207.708H525.68L528.765 210.926H532.456L532.824 207.968L535.375 206.507Z" stroke="#49626B" stroke-width="0.5" stroke-miterlimit="10"/>
<path d="M601.043 204.415C600.865 204.415 596.914 203.375 596.914 203.375C596.38 202.434 595.98 201.416 595.727 200.355C595.857 199.847 596.914 197.396 596.914 197.396L596.795 195.725L595.751 194.116L591.123 192.506L588.963 188.013C588.963 188.013 585.7 187.691 585.51 187.691C585.32 187.691 580.336 193.608 580.336 193.608L578.794 193.992L578.366 197.074L571.887 205.739L570.594 206.457L566.346 204.464L565.159 205.034V210.122L558.372 214.491L556.9 221.461H551.465L549.555 223.491L548.368 221.461H546.268L543.373 227.13H541.889L536.407 221.461L535.541 228.096L525.929 234.818L525.549 237.294L519.865 243.805L522.239 243.681L545.853 240.685L618.617 228.046L619.127 222.884L617.525 223.231L617.051 224.556L612.826 224.172L612.613 225.249L609.931 224.06L607.047 221.795C605.849 221.378 604.629 221.035 603.393 220.768C602.485 220.989 601.565 221.159 600.64 221.275L600.889 219.951L604.01 218.96L607.249 221.015L611.569 222.563C611.569 222.563 613.254 223.169 613.301 222.736C613.348 222.303 611.853 220.421 611.853 220.421L610.085 218.96V215.791L607.866 215.11C607.866 215.11 607.012 214.628 607.012 214.38C607.012 214.132 608.448 213.39 608.448 213.39L609.017 212.659L608.08 211.805L608.317 207.126L604.496 205.12C604.496 205.12 601.233 204.415 601.043 204.415Z" stroke="#49626B" stroke-width="0.5" stroke-miterlimit="10"/>
<path d="M584.893 184.918L575.899 184.992L570.903 187.109L566.892 195.279H565.29L564.555 184.41L551.502 186.589L550.683 184.262L547.645 184.683L545.853 189.152L542.293 194.982H540.751L539.932 200.813L535.375 202.05V206.507L532.859 207.968L532.492 210.926V211.694L531.756 215.804L532.492 218.378L536.443 221.362L541.925 227.031H543.409L546.304 221.362H548.404L549.591 223.392L551.502 221.362H556.936L558.408 214.392L565.195 210.023V204.935L566.382 204.365L570.63 206.358L571.924 205.64L578.403 196.975L578.83 193.893L580.372 193.509C580.372 193.509 585.368 187.592 585.546 187.592H586.187L585.914 186.255L584.893 184.918Z" stroke="#49626B" stroke-width="0.5" stroke-miterlimit="10"/>
<path d="M624.931 198.572L626.367 196.183L624.231 194.462L625.133 193.001L624.563 190.687L621.11 187.517L620.695 182.888L617.906 179.88L616.174 177.404L614.939 174.569L613.788 174.222L611.819 176.203H611.795L619.093 198.572H624.931Z" stroke="#49626B" stroke-width="0.5" stroke-miterlimit="10"/>
<path d="M619.092 198.584L611.795 176.203L564.555 184.448L565.29 195.316H566.892L570.903 187.146L575.899 185.029L584.894 184.955L585.879 186.441L586.151 187.778L588.964 188.05L591.123 192.543L595.751 194.153L596.796 195.762L596.914 197.433C596.914 197.433 595.811 199.909 595.728 200.392C595.98 201.453 596.38 202.471 596.914 203.412C596.914 203.412 600.866 204.452 601.044 204.452C601.222 204.452 604.497 205.096 604.497 205.096L608.318 207.101L610.466 207.708L611 206.074L609.813 204.489L607.44 199.822L607.024 198.584L607.523 195.403L607.024 192.494L608.092 191.64L608.009 190.773L606.455 189.746L606.123 189.238L605.873 187.258L610.228 182.455L610.561 183.234L609.825 185.463C609.825 185.463 609.077 186.403 609.243 187.084C609.593 187.801 610.068 188.444 610.644 188.978L611.213 192.321L611.059 193.955L609.576 194.982L610.062 196.69L611.059 196.95L612.697 198.671L611.961 200.119L613.147 204.242L613.883 204.836L614.951 203.128L617.17 203.387L617.669 206.47L618.072 208.871H619.259L622.225 206.816L623.044 203.635L624.444 202.781V199.302L624.895 198.535L619.092 198.584Z" stroke="#49626B" stroke-width="0.5" stroke-miterlimit="10"/>
<path d="M617.822 167.711V164.455L613.622 161.026V153.302L615.924 150.987C615.924 150.987 615.829 149.242 615.734 147.273L615.224 147.063L609.931 144.476V142.359L605.363 138.893L554.444 148.92L553.53 145.85L553.21 146.221L546.221 150.702L550.659 184.212L551.477 186.54L564.53 184.361L611.794 176.154L613.598 174.346V172.972L617.822 167.711Z" stroke="#49626B" stroke-width="0.5" stroke-miterlimit="10"/>
<path d="M628.608 146.654L627.6 138.942L626.413 133.495V119.878L623.696 108.019L619.139 103.588V94.5634C619.139 94.5634 616.528 89.7975 613.858 84.6602L596.652 89.4013L586.625 107.499L587.812 108.267L589.295 108.354L588.88 110.582L590.363 114.444C590.363 114.444 590.529 115.051 590.363 115.298C590.142 115.773 589.948 116.261 589.781 116.759L583.54 121.711L578.2 122.948L573.762 122.552L571.128 122.131L559.261 126.328L559.415 129.67L562.548 132.592L562.465 135.414L553.494 145.85L554.408 148.92L605.326 138.893L609.931 142.359V144.426L615.223 146.989L624.93 150.851V155.468L625.381 155.394L627.018 158.142L630.234 157.709L633.189 156.681C633.501 155.866 633.899 155.09 634.375 154.366L639.881 152.398L647.357 147.335L650.407 144.934L649.659 144.166L646.621 144.76L643.417 147.162L642.682 147.508L639.715 148.276L636.76 149.514L634.043 152.435L630.673 153.673L628.952 153.5L626.971 152.98V151.742L628.157 151.16L627.493 149.922L628.608 146.654Z" stroke="#49626B" stroke-width="0.5" stroke-miterlimit="10"/>
<path d="M626.365 133.112V133.495L627.599 138.942L628.608 146.654L627.433 149.935L628.098 151.173L629.652 150.393L637.128 144.216L649.362 138.472L646.609 127.269L626.365 133.112Z" stroke="#49626B" stroke-width="0.5" stroke-miterlimit="10"/>
<path d="M657.147 130.066H654.56L650.751 126.08L646.609 127.269L649.362 138.472L651.926 137.271L653.243 132.976L655.129 134.956L657.265 134.61L658.215 131.899L657.147 130.066Z" stroke="#49626B" stroke-width="0.5" stroke-miterlimit="10"/>
<path d="M649.873 114.506L626.365 120.262V133.112L650.751 126.08L654.56 130.066H657.147L658.215 131.899V131.775L659.935 129.547L662.736 131.688L668.076 127.578H669.713L670.295 126.551L670.045 123.889L669.642 122.342L667.174 119.866C667.174 119.866 666.272 118.913 665.987 118.913C665.514 119.014 665.092 119.292 664.8 119.693C664.563 119.975 664.367 120.292 664.219 120.634L665.536 121.067H666.521L668.42 123.035L668.74 124.83L666.035 126.811L664.551 127.665L661.798 126.266C661.509 125.488 661.287 124.684 661.134 123.865C661.134 123.357 660.718 121.203 660.718 121.203L658.499 120.349L654.144 120.869L654.394 118.975L657.111 116.066L657.598 113.144H656.126L655.295 110.582H651.605L649.873 114.506Z" stroke="#49626B" stroke-width="0.5" stroke-miterlimit="10"/>
<path d="M681.852 59.147L675.112 58.3795L667.304 35.6145L661.952 34.7604L656.945 32.2845H655.758L654.275 34.7604H650.822L648.852 33.0768L647.665 34.03L642.812 53.3165L645.446 57.8596L645.529 60.8677L644.544 62.9226L644.711 64.1605L644.295 65.8812L643.393 66.9087L642.658 69.5578L643.061 72.4793L640.344 73.4324C644.651 85.6134 653.575 108.935 653.575 108.935L655.129 109.257L657.194 106.881V103.402L659.247 102.362L659.899 101.681L659.769 99.5398L660.683 96.6184L662.154 96.705L659.769 94.3901C659.769 94.3901 659.199 94.3901 659.769 93.9692C660.418 93.5961 661.107 93.3051 661.822 93.1027L663.222 93.9692C663.222 93.9692 664.705 95.6776 664.955 95.5909C665.204 95.5042 665.275 93.4493 665.275 93.4493L664.088 92.4219L664.421 90.6145L664.919 88.3863C664.919 88.3863 667.387 87.6188 667.625 88.213C667.862 88.8072 668.206 89.6737 668.206 89.6737L669.191 89.5004L668.609 77.6661L670.342 79.5601L671.078 80.08L671.979 79.1268C671.979 79.1268 672.893 78.2726 673.463 78.3593C674.032 78.4459 675.029 79.5972 675.029 79.5972L676.346 80.1171L676.667 77.2823C676.667 77.2823 677.984 77.7032 678.067 77.7032C678.339 78.0285 678.585 78.3763 678.803 78.743L679.716 77.2823L682.018 76.5891V75.3512L680.452 73.9771L681.52 73.5439L682.018 72.9497L684.237 71.9965L686.456 72.3431L687.358 70.6348L687.691 69.1988L681.852 59.147Z" stroke="#49626B" stroke-width="0.5" stroke-miterlimit="10"/>
<path d="M633.843 105.804L635.16 91.6048L637.379 89.4509L637.865 85.5144L636.394 84.1403V78.4459L613.848 84.6354C616.518 89.7604 619.128 94.5387 619.128 94.5387V103.625L623.685 108.057L626.402 119.916V120.238L635.361 118.046L635.646 111.436L633.843 105.804Z" stroke="#49626B" stroke-width="0.5" stroke-miterlimit="10"/>
<path d="M655.023 109.48L655.178 109.294L653.576 108.935C653.576 108.935 644.652 85.5763 640.25 73.3582L636.891 74.5961L636.393 78.4583V84.1155L637.864 85.4896L637.378 89.4261L635.159 91.6048L633.842 105.841L635.61 111.411L635.325 118.022L649.873 114.457L651.606 110.47H655.296L655.023 109.48Z" stroke="#49626B" stroke-width="0.5" stroke-miterlimit="10"/>
<path d="M624.17 159.566C623.569 159.355 623.068 158.912 622.77 158.328C622.77 158.068 623.268 155.753 623.268 155.753L624.953 155.481V150.9L615.757 147.187C615.852 149.18 615.947 150.9 615.947 150.9L613.645 153.215V160.94L617.845 164.369V167.624L613.645 172.935V174.309L613.811 174.136L614.997 174.482L616.184 177.317H618.237L619.637 178.555L622.271 181.563L623.173 180.882L623.577 177.874L625.796 172.923L626.982 169.073V159.888C626.982 159.888 624.562 159.566 624.17 159.566Z" stroke="#49626B" stroke-width="0.5" stroke-miterlimit="10"/>
<path d="M133.745 422.954L140.319 419.352L135.181 407.617L115.827 401.34L85.0928 401.167L72.5975 393.628L72.0161 388.999L59.77 382.054L60.1853 389.766L52.6977 398.691L48.2596 411.64L37.9834 430.493L32.7266 431.62V432.981L34.6133 435.21V446.276H34.5065L83.1942 462.307L119.944 472L133.745 422.954Z" fill="#39979C"/>
</g>
<defs>
<clipPath id="clip0_89_893">
<rect width="688" height="472" fill="white"/>
</clipPath>
</defs>
</svg>
