<svg width="241" height="18" viewBox="0 0 241 18" fill="none" xmlns="http://www.w3.org/2000/svg">
<path d="M6.56 17.812C5.504 17.812 4.52 17.548 3.608 17.02C2.712 16.492 2 15.78 1.472 14.884C0.944 13.988 0.68 13.012 0.68 11.956V6.364C0.68 5.308 0.944 4.332 1.472 3.436C2 2.54 2.712 1.828 3.608 1.3C4.52 0.772 5.504 0.508 6.56 0.508C7.616 0.508 8.592 0.772 9.488 1.3C10.4 1.828 11.12 2.54 11.648 3.436C12.176 4.332 12.44 5.308 12.44 6.364V11.956C12.44 13.012 12.176 13.988 11.648 14.884C11.12 15.78 10.4 16.492 9.488 17.02C8.592 17.548 7.616 17.812 6.56 17.812ZM6.56 15.964C7.264 15.964 7.912 15.78 8.504 15.412C9.112 15.044 9.592 14.556 9.944 13.948C10.296 13.324 10.472 12.66 10.472 11.956V6.364C10.472 5.66 10.296 5.004 9.944 4.396C9.592 3.772 9.112 3.276 8.504 2.908C7.912 2.54 7.264 2.356 6.56 2.356C5.856 2.356 5.2 2.54 4.592 2.908C4 3.276 3.528 3.772 3.176 4.396C2.824 5.004 2.648 5.66 2.648 6.364V11.956C2.648 12.66 2.824 13.324 3.176 13.948C3.528 14.556 4 15.044 4.592 15.412C5.2 15.78 5.856 15.964 6.56 15.964ZM17.1504 17.5C17.0544 17.5 16.9744 17.468 16.9104 17.404C16.8464 17.34 16.8144 17.26 16.8144 17.164V1.684C16.8144 1.444 16.8944 1.244 17.0544 1.084C17.2304 0.907999 17.4384 0.819999 17.6784 0.819999H21.8544C22.7504 0.819999 23.5664 1.036 24.3024 1.468C25.0544 1.9 25.6464 2.492 26.0784 3.244C26.5104 3.98 26.7264 4.788 26.7264 5.668C26.7264 6.836 26.3584 7.86 25.6224 8.74C24.8864 9.62 23.9584 10.172 22.8384 10.396L26.8224 16.828C26.8704 16.892 26.8944 16.972 26.8944 17.068C26.8944 17.196 26.8464 17.3 26.7504 17.38C26.6704 17.46 26.5664 17.5 26.4384 17.5H25.2144C25.0544 17.5 24.9344 17.428 24.8544 17.284L20.6544 10.492H18.7824V17.164C18.7824 17.26 18.7504 17.34 18.6864 17.404C18.6224 17.468 18.5424 17.5 18.4464 17.5H17.1504ZM21.7104 8.644C22.5744 8.644 23.2864 8.364 23.8464 7.804C24.4224 7.244 24.7104 6.54 24.7104 5.692C24.7104 4.812 24.4224 4.092 23.8464 3.532C23.2864 2.956 22.5744 2.668 21.7104 2.668H18.7824V8.644H21.7104ZM31.5749 17.5C31.3349 17.5 31.1269 17.42 30.9509 17.26C30.7909 17.084 30.7109 16.876 30.7109 16.636V1.684C30.7109 1.444 30.7909 1.244 30.9509 1.084C31.1269 0.907999 31.3349 0.819999 31.5749 0.819999H39.4709C39.5669 0.819999 39.6469 0.851999 39.7109 0.915999C39.7749 0.979999 39.8069 1.06 39.8069 1.156V2.332C39.8069 2.428 39.7749 2.508 39.7109 2.572C39.6469 2.636 39.5669 2.668 39.4709 2.668H32.6789V7.804H37.8629C37.9589 7.804 38.0389 7.836 38.1029 7.9C38.1669 7.964 38.1989 8.044 38.1989 8.14V9.268C38.1989 9.364 38.1669 9.444 38.1029 9.508C38.0389 9.572 37.9589 9.604 37.8629 9.604H32.6789V15.652H39.4709C39.5669 15.652 39.6469 15.684 39.7109 15.748C39.7749 15.812 39.8069 15.892 39.8069 15.988V17.164C39.8069 17.26 39.7749 17.34 39.7109 17.404C39.6469 17.468 39.5669 17.5 39.4709 17.5H31.5749ZM48.7413 17.788C47.6853 17.788 46.7093 17.524 45.8133 16.996C44.9173 16.468 44.2053 15.756 43.6773 14.86C43.1493 13.964 42.8853 12.988 42.8853 11.932V6.34C42.8853 5.284 43.1493 4.308 43.6773 3.412C44.2053 2.516 44.9173 1.804 45.8133 1.276C46.7093 0.747999 47.6853 0.483999 48.7413 0.483999C49.6213 0.483999 50.4453 0.635999 51.2133 0.939999C51.9813 1.244 52.6453 1.676 53.2053 2.236C53.2853 2.3 53.3253 2.396 53.3253 2.524C53.3253 2.636 53.2853 2.74 53.2053 2.836C53.0933 2.964 52.8693 3.196 52.5333 3.532C52.4213 3.612 52.3093 3.652 52.1973 3.652C52.0693 3.652 51.9493 3.596 51.8373 3.484C51.0213 2.716 49.9973 2.332 48.7653 2.332C48.0613 2.332 47.4053 2.516 46.7973 2.884C46.2053 3.252 45.7333 3.748 45.3813 4.372C45.0293 4.98 44.8533 5.636 44.8533 6.34V11.932C44.8533 12.636 45.0293 13.3 45.3813 13.924C45.7333 14.532 46.2053 15.02 46.7973 15.388C47.4053 15.756 48.0613 15.94 48.7653 15.94C49.4693 15.94 50.1173 15.764 50.7093 15.412C51.3013 15.06 51.7733 14.588 52.1253 13.996C52.4773 13.388 52.6533 12.732 52.6533 12.028V10.132H49.2693C49.1733 10.132 49.0933 10.1 49.0293 10.036C48.9653 9.972 48.9333 9.892 48.9333 9.796V8.692C48.9333 8.596 48.9653 8.516 49.0293 8.452C49.0933 8.388 49.1733 8.356 49.2693 8.356H53.7093C53.9493 8.356 54.1493 8.444 54.3093 8.62C54.4853 8.78 54.5733 8.98 54.5733 9.22V11.932C54.5733 12.988 54.3093 13.964 53.7813 14.86C53.2693 15.756 52.5653 16.468 51.6693 16.996C50.7733 17.524 49.7973 17.788 48.7413 17.788ZM64.115 17.812C63.059 17.812 62.075 17.548 61.163 17.02C60.267 16.492 59.555 15.78 59.027 14.884C58.499 13.988 58.235 13.012 58.235 11.956V6.364C58.235 5.308 58.499 4.332 59.027 3.436C59.555 2.54 60.267 1.828 61.163 1.3C62.075 0.772 63.059 0.508 64.115 0.508C65.171 0.508 66.147 0.772 67.043 1.3C67.955 1.828 68.675 2.54 69.203 3.436C69.731 4.332 69.995 5.308 69.995 6.364V11.956C69.995 13.012 69.731 13.988 69.203 14.884C68.675 15.78 67.955 16.492 67.043 17.02C66.147 17.548 65.171 17.812 64.115 17.812ZM64.115 15.964C64.819 15.964 65.467 15.78 66.059 15.412C66.667 15.044 67.147 14.556 67.499 13.948C67.851 13.324 68.027 12.66 68.027 11.956V6.364C68.027 5.66 67.851 5.004 67.499 4.396C67.147 3.772 66.667 3.276 66.059 2.908C65.467 2.54 64.819 2.356 64.115 2.356C63.411 2.356 62.755 2.54 62.147 2.908C61.555 3.276 61.083 3.772 60.731 4.396C60.379 5.004 60.203 5.66 60.203 6.364V11.956C60.203 12.66 60.379 13.324 60.731 13.948C61.083 14.556 61.555 15.044 62.147 15.412C62.755 15.78 63.411 15.964 64.115 15.964ZM74.7054 17.5C74.6094 17.5 74.5294 17.468 74.4654 17.404C74.4014 17.34 74.3694 17.26 74.3694 17.164V1.324C74.3694 1.18 74.4174 1.06 74.5134 0.964C74.6094 0.867999 74.7294 0.819999 74.8734 0.819999H76.2894C76.4174 0.819999 76.5374 0.851999 76.6494 0.915999C76.7614 0.963999 76.8494 1.044 76.9134 1.156L84.4974 14.404V1.156C84.4974 1.06 84.5294 0.979999 84.5934 0.915999C84.6574 0.851999 84.7374 0.819999 84.8334 0.819999H86.0334C86.1294 0.819999 86.2094 0.851999 86.2734 0.915999C86.3374 0.979999 86.3694 1.06 86.3694 1.156V16.996C86.3694 17.14 86.3214 17.26 86.2254 17.356C86.1294 17.452 86.0094 17.5 85.8654 17.5H84.4254C84.2974 17.5 84.1774 17.476 84.0654 17.428C83.9534 17.364 83.8654 17.276 83.8014 17.164L76.2414 3.94V17.164C76.2414 17.26 76.2094 17.34 76.1454 17.404C76.0814 17.468 76.0014 17.5 75.9054 17.5H74.7054ZM101.711 17.5C101.615 17.5 101.535 17.468 101.471 17.404C101.407 17.34 101.375 17.26 101.375 17.164V2.668H97.2226C97.1266 2.668 97.0466 2.636 96.9826 2.572C96.9186 2.508 96.8866 2.428 96.8866 2.332V1.156C96.8866 1.06 96.9186 0.979999 96.9826 0.915999C97.0466 0.851999 97.1266 0.819999 97.2226 0.819999H107.495C107.591 0.819999 107.671 0.851999 107.735 0.915999C107.799 0.979999 107.831 1.06 107.831 1.156V2.332C107.831 2.428 107.799 2.508 107.735 2.572C107.671 2.636 107.591 2.668 107.495 2.668H103.343V17.164C103.343 17.26 103.311 17.34 103.247 17.404C103.183 17.468 103.103 17.5 103.007 17.5H101.711ZM111.684 17.5C111.588 17.5 111.508 17.468 111.444 17.404C111.38 17.34 111.348 17.26 111.348 17.164V1.684C111.348 1.444 111.428 1.244 111.588 1.084C111.764 0.907999 111.972 0.819999 112.212 0.819999H116.388C117.284 0.819999 118.1 1.036 118.836 1.468C119.588 1.9 120.18 2.492 120.612 3.244C121.044 3.98 121.26 4.788 121.26 5.668C121.26 6.836 120.892 7.86 120.156 8.74C119.42 9.62 118.492 10.172 117.372 10.396L121.356 16.828C121.404 16.892 121.428 16.972 121.428 17.068C121.428 17.196 121.38 17.3 121.284 17.38C121.204 17.46 121.1 17.5 120.972 17.5H119.748C119.588 17.5 119.468 17.428 119.388 17.284L115.188 10.492H113.316V17.164C113.316 17.26 113.284 17.34 113.22 17.404C113.156 17.468 113.076 17.5 112.98 17.5H111.684ZM116.244 8.644C117.108 8.644 117.82 8.364 118.38 7.804C118.956 7.244 119.244 6.54 119.244 5.692C119.244 4.812 118.956 4.092 118.38 3.532C117.82 2.956 117.108 2.668 116.244 2.668H113.316V8.644H116.244ZM124.863 17.5C124.767 17.5 124.687 17.468 124.623 17.404C124.559 17.34 124.527 17.26 124.527 17.164V16.036C124.527 15.94 124.559 15.86 124.623 15.796C124.687 15.732 124.767 15.7 124.863 15.7H127.287V2.62H124.863C124.767 2.62 124.687 2.588 124.623 2.524C124.559 2.46 124.527 2.38 124.527 2.284V1.156C124.527 1.06 124.559 0.979999 124.623 0.915999C124.687 0.851999 124.767 0.819999 124.863 0.819999H131.679C131.775 0.819999 131.855 0.851999 131.919 0.915999C131.983 0.979999 132.015 1.06 132.015 1.156V2.284C132.015 2.38 131.983 2.46 131.919 2.524C131.855 2.588 131.775 2.62 131.679 2.62H129.255V15.7H131.679C131.775 15.7 131.855 15.732 131.919 15.796C131.983 15.86 132.015 15.94 132.015 16.036V17.164C132.015 17.26 131.983 17.34 131.919 17.404C131.855 17.468 131.775 17.5 131.679 17.5H124.863ZM136.501 17.5C136.405 17.5 136.325 17.468 136.261 17.404C136.197 17.34 136.165 17.26 136.165 17.164V1.684C136.165 1.444 136.245 1.244 136.405 1.084C136.581 0.907999 136.789 0.819999 137.029 0.819999H141.061C142.021 0.819999 142.901 1.052 143.701 1.516C144.501 1.98 145.133 2.604 145.597 3.388C146.061 4.172 146.293 5.036 146.293 5.98C146.293 6.924 146.061 7.788 145.597 8.572C145.133 9.356 144.501 9.98 143.701 10.444C142.901 10.908 142.021 11.14 141.061 11.14H138.133V17.164C138.133 17.26 138.101 17.34 138.037 17.404C137.973 17.468 137.893 17.5 137.797 17.5H136.501ZM140.941 9.292C141.549 9.292 142.109 9.148 142.621 8.86C143.133 8.556 143.533 8.148 143.821 7.636C144.125 7.124 144.277 6.572 144.277 5.98C144.277 5.388 144.125 4.836 143.821 4.324C143.533 3.812 143.133 3.412 142.621 3.124C142.109 2.82 141.549 2.668 140.941 2.668H138.133V9.292H140.941ZM157.169 17.5C157.073 17.5 156.993 17.468 156.929 17.404C156.865 17.34 156.833 17.26 156.833 17.164V1.684C156.833 1.444 156.913 1.244 157.073 1.084C157.249 0.907999 157.457 0.819999 157.697 0.819999H161.729C162.689 0.819999 163.569 1.052 164.369 1.516C165.169 1.98 165.801 2.604 166.265 3.388C166.729 4.172 166.961 5.036 166.961 5.98C166.961 6.924 166.729 7.788 166.265 8.572C165.801 9.356 165.169 9.98 164.369 10.444C163.569 10.908 162.689 11.14 161.729 11.14H158.801V17.164C158.801 17.26 158.769 17.34 158.705 17.404C158.641 17.468 158.561 17.5 158.465 17.5H157.169ZM161.609 9.292C162.217 9.292 162.777 9.148 163.289 8.86C163.801 8.556 164.201 8.148 164.489 7.636C164.793 7.124 164.945 6.572 164.945 5.98C164.945 5.388 164.793 4.836 164.489 4.324C164.201 3.812 163.801 3.412 163.289 3.124C162.777 2.82 162.217 2.668 161.609 2.668H158.801V9.292H161.609ZM171.476 17.5C171.236 17.5 171.028 17.42 170.852 17.26C170.692 17.084 170.612 16.876 170.612 16.636V1.684C170.612 1.444 170.692 1.244 170.852 1.084C171.028 0.907999 171.236 0.819999 171.476 0.819999H179.372C179.468 0.819999 179.548 0.851999 179.612 0.915999C179.676 0.979999 179.708 1.06 179.708 1.156V2.332C179.708 2.428 179.676 2.508 179.612 2.572C179.548 2.636 179.468 2.668 179.372 2.668H172.58V7.804H177.764C177.86 7.804 177.94 7.836 178.004 7.9C178.068 7.964 178.1 8.044 178.1 8.14V9.268C178.1 9.364 178.068 9.444 178.004 9.508C177.94 9.572 177.86 9.604 177.764 9.604H172.58V15.652H179.372C179.468 15.652 179.548 15.684 179.612 15.748C179.676 15.812 179.708 15.892 179.708 15.988V17.164C179.708 17.26 179.676 17.34 179.612 17.404C179.548 17.468 179.468 17.5 179.372 17.5H171.476ZM183.954 17.5C183.858 17.5 183.778 17.468 183.714 17.404C183.65 17.34 183.618 17.26 183.618 17.164V1.684C183.618 1.444 183.698 1.244 183.858 1.084C184.034 0.907999 184.242 0.819999 184.482 0.819999H188.658C189.554 0.819999 190.37 1.036 191.106 1.468C191.858 1.9 192.45 2.492 192.882 3.244C193.314 3.98 193.53 4.788 193.53 5.668C193.53 6.836 193.162 7.86 192.426 8.74C191.69 9.62 190.762 10.172 189.642 10.396L193.626 16.828C193.674 16.892 193.698 16.972 193.698 17.068C193.698 17.196 193.65 17.3 193.554 17.38C193.474 17.46 193.37 17.5 193.242 17.5H192.018C191.858 17.5 191.738 17.428 191.658 17.284L187.458 10.492H185.586V17.164C185.586 17.26 185.554 17.34 185.49 17.404C185.426 17.468 185.346 17.5 185.25 17.5H183.954ZM188.514 8.644C189.378 8.644 190.09 8.364 190.65 7.804C191.226 7.244 191.514 6.54 191.514 5.692C191.514 4.812 191.226 4.092 190.65 3.532C190.09 2.956 189.378 2.668 188.514 2.668H185.586V8.644H188.514ZM205.555 17.812C205.459 17.812 205.363 17.78 205.267 17.716C205.187 17.668 205.131 17.596 205.099 17.5L200.491 4.156L198.907 17.092C198.891 17.22 198.835 17.324 198.739 17.404C198.659 17.468 198.555 17.5 198.427 17.5H197.299C197.171 17.5 197.067 17.46 196.987 17.38C196.923 17.284 196.899 17.18 196.915 17.068L199.003 1.084C199.019 1.004 199.051 0.94 199.099 0.891999C199.163 0.843999 199.227 0.819999 199.291 0.819999H200.971C201.067 0.819999 201.163 0.851999 201.259 0.915999C201.355 0.963999 201.411 1.036 201.427 1.132L206.155 14.836L210.931 1.036C210.979 0.891999 211.075 0.819999 211.219 0.819999H212.875C213.003 0.819999 213.107 0.859999 213.187 0.939999C213.283 1.004 213.339 1.1 213.355 1.228L215.419 17.068V17.116C215.419 17.212 215.379 17.3 215.299 17.38C215.235 17.46 215.147 17.5 215.035 17.5H213.883C213.755 17.5 213.643 17.468 213.547 17.404C213.467 17.324 213.419 17.22 213.403 17.092L211.819 4.204L207.211 17.5C207.179 17.596 207.115 17.668 207.019 17.716C206.939 17.78 206.851 17.812 206.755 17.812H205.555ZM219.186 17.5C219.09 17.5 219.01 17.468 218.946 17.404C218.882 17.34 218.85 17.26 218.85 17.164V16.036C218.85 15.94 218.882 15.86 218.946 15.796C219.01 15.732 219.09 15.7 219.186 15.7H221.61V2.62H219.186C219.09 2.62 219.01 2.588 218.946 2.524C218.882 2.46 218.85 2.38 218.85 2.284V1.156C218.85 1.06 218.882 0.979999 218.946 0.915999C219.01 0.851999 219.09 0.819999 219.186 0.819999H226.002C226.098 0.819999 226.178 0.851999 226.242 0.915999C226.306 0.979999 226.338 1.06 226.338 1.156V2.284C226.338 2.38 226.306 2.46 226.242 2.524C226.178 2.588 226.098 2.62 226.002 2.62H223.578V15.7H226.002C226.098 15.7 226.178 15.732 226.242 15.796C226.306 15.86 226.338 15.94 226.338 16.036V17.164C226.338 17.26 226.306 17.34 226.242 17.404C226.178 17.468 226.098 17.5 226.002 17.5H219.186ZM234.207 17.5C234.111 17.5 234.031 17.468 233.967 17.404C233.903 17.34 233.871 17.26 233.871 17.164V2.668H229.719C229.623 2.668 229.543 2.636 229.479 2.572C229.415 2.508 229.383 2.428 229.383 2.332V1.156C229.383 1.06 229.415 0.979999 229.479 0.915999C229.543 0.851999 229.623 0.819999 229.719 0.819999H239.992C240.087 0.819999 240.167 0.851999 240.231 0.915999C240.295 0.979999 240.327 1.06 240.327 1.156V2.332C240.327 2.428 240.295 2.508 240.231 2.572C240.167 2.636 240.087 2.668 239.992 2.668H235.839V17.164C235.839 17.26 235.807 17.34 235.743 17.404C235.679 17.468 235.599 17.5 235.503 17.5H234.207Z" fill="#4A4345"/>
</svg>
